<svg xmlns="http://www.w3.org/2000/svg" xmlns:xlink="http://www.w3.org/1999/xlink" width="800" height="800" viewBox="0 0 512 512" xmlns:v="https://vecta.io/nano"><path d="M464 256h0c8.837 0 16-7.163 16-16V120h-32v120c0 8.837 7.163 16 16 16zm-80-8v-16h-32v-16h-32v24h-32v143.548c0 8.615 6.621 16.028 15.226 16.434C312.415 400.415 320 393.093 320 384v-16c0-8.837 7.164-16 16-16s16 7.163 16 16v7.548c0 8.615 6.621 16.028 15.226 16.434C376.415 392.415 384 385.093 384 376v-56c0 8.837 7.164 16 16 16s16-7.163 16-16v-72h-32z" fill="#cf535a"/><path d="M34.755 490.576L15.38 477.607c-4.946-3.311-7.378-9.299-6.141-15.121h0a233.28 233.28 0 0 1 89.266-138.922l1.887-1.399c23.799-17.642 44.119-39.547 59.927-64.602L314.156 14.171a13.25 13.25 0 0 1 18.565-3.931l23.407 15.668a13.25 13.25 0 0 1 3.829 18.085l-154.21 243.978a239.48 239.48 0 0 1-59.927 64.602l-11.242 8.333a202.51 202.51 0 0 0-77.491 120.598h0c-2.138 10.074-13.775 14.8-22.332 9.072z" fill="#68572e"/><path d="M280.79 41.265h0a24.15 24.15 0 0 0-33.496 6.634l-54.23 81.018a24.15 24.15 0 0 0 6.634 33.496h0a369.31 369.31 0 0 1 94.681 91.672l51.71 72.102h0A464.34 464.34 0 0 0 488 114.178h0l-86.369-20.323a369.33 369.33 0 0 1-120.841-52.59z" fill="#4d5166"/><path d="M431.885 230.116c-23.884 35.682-52.709 68.057-85.796 96.071l-27.912-38.912a400.55 400.55 0 0 0 123.209-184.069L488 114.178a464.18 464.18 0 0 1-56.115 115.938z" fill="#9ea6d1"/><g fill="#cf535a"><use xlink:href="#B"/><use xlink:href="#B" x="64" y="32"/><use xlink:href="#B" x="104" y="-32"/><use xlink:href="#B" x="160" y="-128"/></g><path d="M488 114.178l-83.249-19.589c-.91 6.561-5.432 12.304-12.048 14.51l-5.26 1.753c-12.608 4.203-16.386 20.205-6.988 29.603a17.88 17.88 0 0 1 1.093 24.087l-19.096 22.915a17.88 17.88 0 0 0 1.093 24.087L408 256l8.922-4.83c31.023-41.191 55.123-87.45 71.078-136.992h0z" fill="#e65c64"/><defs ><path id="B" d="M320 456c0 8.837-7.163 16-16 16s-16-7.163-16-16 16-32 16-32 16 23.163 16 32z"/></defs></svg>