<?xml version="1.0" ?>
<!-- Uploaded to: SVG Repo, www.svgrepo.com, Generator: SVG Repo Mixer Tools -->
<svg width="800px" height="800px" viewBox="0 0 512 512" enable-background="new 0 0 512 512" id="flat" version="1.1" xml:space="preserve" xmlns="http://www.w3.org/2000/svg" xmlns:xlink="http://www.w3.org/1999/xlink">
<path d="M464,256L464,256c8.837,0,16-7.163,16-16V120h-32v120C448,248.837,455.163,256,464,256z" fill="#CF535A"/>
<path d="M384,248v-16h-32v-16h-32v24h-32v143.548c0,8.615,6.621,16.028,15.226,16.434  C312.415,400.415,320,393.093,320,384v-16c0-8.837,7.164-16,16-16s16,7.163,16,16v7.548c0,8.615,6.621,16.028,15.226,16.434  C376.415,392.415,384,385.093,384,376v-56c0,8.837,7.164,16,16,16s16-7.163,16-16v-72H384z" fill="#CF535A"/>
<path d="M34.755,490.576l-19.375-12.969c-4.946-3.311-7.378-9.299-6.141-15.121l0,0  c11.822-55.642,43.568-105.047,89.266-138.922l1.887-1.399c23.799-17.642,44.119-39.547,59.927-64.602L314.156,14.171  c3.981-6.299,12.373-8.076,18.565-3.931l23.407,15.668c5.967,3.994,7.665,12.015,3.829,18.085l-154.21,243.978  c-15.808,25.055-36.127,46.96-59.927,64.602l-11.242,8.333c-39.67,29.407-67.228,72.295-77.491,120.598l0,0  C54.949,491.578,43.312,496.304,34.755,490.576z" fill="#68572E"/>
<path d="M280.79,41.265L280.79,41.265c-11.082-7.418-26.078-4.447-33.496,6.634l-54.23,81.018  c-7.418,11.082-4.447,26.078,6.634,33.496l0,0c36.801,24.633,68.872,55.685,94.681,91.672l51.71,72.102l0,0  C412.26,270.153,461.419,196.711,488,114.178l0,0l-86.369-20.323C358.524,83.712,317.592,65.898,280.79,41.265z" fill="#4D5166"/>
<path d="M431.885,230.116c-23.884,35.682-52.709,68.057-85.796,96.071l-27.912-38.912  c57.55-48.548,100.263-112.359,123.209-184.069L488,114.178C474.713,155.445,455.769,194.434,431.885,230.116z" fill="#9EA6D1"/>
<path d="M320,456c0,8.837-7.163,16-16,16s-16-7.163-16-16s16-32,16-32S320,447.163,320,456z" fill="#CF535A"/>
<path d="M384,488c0,8.837-7.163,16-16,16s-16-7.163-16-16s16-32,16-32S384,479.163,384,488z" fill="#CF535A"/>
<path d="M424,424c0,8.837-7.163,16-16,16s-16-7.163-16-16s16-32,16-32S424,415.163,424,424z" fill="#CF535A"/>
<path d="M480,328c0,8.837-7.163,16-16,16s-16-7.163-16-16s16-32,16-32S480,319.163,480,328z" fill="#CF535A"/>
<g>
<path d="M488,114.178l-83.249-19.589c-0.91,6.561-5.432,12.304-12.048,14.51l-5.26,1.753   c-12.608,4.203-16.386,20.205-6.988,29.603c6.539,6.538,7.012,16.984,1.093,24.087l-19.096,22.915   c-5.919,7.104-5.446,17.549,1.093,24.087L408,256c0,0,3.407-1.834,8.922-4.83C447.945,209.979,472.045,163.72,488,114.178   L488,114.178z" fill="#E65C64"/>
</g>
</svg>