<svg xmlns="http://www.w3.org/2000/svg" width="800" height="800" viewBox="0 0 512 512" xmlns:v="https://vecta.io/nano"><path d="M181.505 397.711c-13.047-20.699-22.12-46.903-22.12-46.903s-9.074 26.204-22.12 46.903c-2.777 4.406-4.314 9.47-4.314 14.678v4.648c0 14.366 11.41 26.319 25.775 26.55l.66.005.66-.005c14.364-.23 25.775-12.184 25.775-26.55v-4.648c-.002-5.208-1.54-10.272-4.316-14.678z" fill="#d6c6e1"/><path d="M159.385 350.809c-.002.006-9.075 26.205-22.12 46.902-2.777 4.405-4.314 9.469-4.314 14.677v4.649c0 14.366 11.411 26.319 25.775 26.55l.66.005v-92.783z" fill="#fff"/><path fill="#ffd3cd" d="M274.792 46.314h7.767v419.373h-7.767z"/><path d="M274.792 80.181l7.767 6.896V46.314h-7.767zm0 350.329v35.177h7.767v-40.742z" fill="#de8280"/><radialGradient cx="320.117" cy="256.008" gradientUnits="userSpaceOnUse" id="A" r="177.489"><stop offset="0" stop-color="#f0dd7a"/><stop offset="1" stop-color="#baa047"/></radialGradient><path d="M373.981 180.814S360.94 92.163 279.205 35.421c-2.695-1.87-3.27-5.778-.935-8.084l.18-.173c2.953-2.794 3.696-7.203 1.567-10.667l-.529-.862c-2.471-4.021-7.973-4.836-11.503-1.705l-.054.048c-8.813 7.83-8.948 21.594-.666 29.984 3.083 3.124 8.298 6.889 13.898 10.917 0 0 82.221 54.944 61.474 155.247-.837 4.042.791 8.158 4.075 10.659 6.28 4.783 15.552 14.409 15.758 29.655v11.122c-.206 15.247-9.478 24.873-15.758 29.656-3.284 2.501-4.912 6.616-4.075 10.658 20.747 100.303-61.474 155.248-61.474 155.248-5.601 4.027-10.815 7.793-13.898 10.916-8.282 8.391-8.147 22.155.666 29.984l.25.219c3.499 3.024 8.927 1.997 11.348-1.943l.488-.795c2.129-3.464 1.388-7.876-1.568-10.668l-.179-.173c-2.335-2.306-1.761-6.213.935-8.084 81.735-56.741 94.776-145.394 94.776-145.394C378.205 305.842 379.05 256 379.05 256s-.845-49.842-5.069-75.186z" fill="url(#A)"/><path d="M159.385 450.826h0a6.95 6.95 0 0 1-6.95-6.95V141.81h13.9v302.066a6.95 6.95 0 0 1-6.95 6.95z" fill="#b7486f"/><path fill="#7f153e" d="M152.435 141.81h13.9v15.045h-13.9z"/><path d="M175.534 138.272c-6.888-10.389-11.602-24.554-14.085-33.323-.722-2.55-3.407-2.55-4.129 0-2.483 8.77-7.197 22.935-14.085 33.323-2.414 3.641-.472 9.419 3.148 9.419h13.001 13.001c3.621 0 5.563-5.777 3.149-9.419z" fill="#fff"/><path d="M161.449 104.949c-.361-1.275-1.213-1.913-2.064-1.912v44.654h13.001c3.62 0 5.563-5.777 3.148-9.418-6.888-10.389-11.601-24.554-14.085-33.324z" fill="#d6c6e1"/><path d="M279.205 476.579c10.51-7.296 19.824-15.134 28.177-23.229-1.587-6.245-2.314-12.229-2.541-17.554-12.823 14.059-23.677 21.325-23.677 21.325-5.601 4.028-10.815 7.794-13.898 10.917-8.282 8.39-8.147 22.154.666 29.984l.25.219c3.499 3.024 8.928 1.997 11.348-1.943l.488-.795c2.129-3.464 1.386-7.873-1.567-10.668-.062-.057-.121-.115-.18-.173-2.335-2.305-1.761-6.213.934-8.083zm0-441.158c-2.695-1.87-3.27-5.778-.935-8.084l.18-.173c2.953-2.794 3.696-7.203 1.567-10.667l-.488-.795c-2.42-3.94-7.849-4.968-11.348-1.944l-.25.219c-8.813 7.83-8.948 21.594-.666 29.984 3.083 3.124 8.298 6.889 13.898 10.917 0 0 11.022 7.382 23.976 21.655.481-5.26 1.471-10.991 3.283-16.885-8.609-8.451-18.275-16.63-29.217-24.227z" fill="#998337"/><path d="M295.318 464.436l-9.633-12.038c-1.372-1.714-3.872-1.991-5.586-.62-1.518 1.215-1.833 3.288-.951 4.942-1.421-1.224-3.514-1.37-5.03-.155h-.001c-1.713 1.371-1.99 3.872-.619 5.586l9.634 12.037a3.97 3.97 0 0 0 5.585.62c1.518-1.214 1.833-3.287.951-4.942 1.421 1.224 3.514 1.37 5.031.156 1.713-1.372 1.99-3.873.619-5.586zm-.541-422.394c-1.586-1.27-3.811-1.069-5.226.317 1.043-1.685.751-3.898-.835-5.167-1.713-1.372-4.214-1.094-5.585.62l-9.634 12.038c-1.371 1.714-1.094 4.214.619 5.585h.001c1.586 1.27 3.81 1.069 5.225-.318-1.043 1.685-.751 3.898.835 5.168 1.714 1.371 4.215 1.094 5.586-.62l9.633-12.038c1.372-1.714 1.094-4.214-.619-5.585z" fill="#ffd3cd"/><path d="M346.713 220.784c6.28 4.783 15.552 14.409 15.758 29.655v11.122c-.206 15.246-9.478 24.873-15.758 29.656 28.438-7.52 26.757-35.209 26.757-35.209 0-28.117-26.757-35.224-26.757-35.224z" fill="#baa047"/></svg>