<svg xmlns="http://www.w3.org/2000/svg" width="800" height="800" viewBox="0 0 512 512" xmlns:v="https://vecta.io/nano"><path d="M162.027 360.441v73.413c0 4.554 5.805 6.479 8.525 2.825l12.645-16.98c.451-.605 1.359-.599 1.801.013l11.992 16.577c2.689 3.718 8.564 1.815 8.564-2.772v-73.075h-43.527z" fill="#7a2b5a"/><g fill="#5b153e"><path d="M309.645 360.441v113.088c0 3.281 4.313 4.476 5.987 1.653 6.298-10.608 16.825-26.333 27.974-34.318.852-.609 1.365-1.56 1.365-2.607v-77.815h-35.326z"/><path d="M340.555 35.233h46.059c7.661 0 13.872 6.211 13.872 13.872v305.021c0 7.661-6.211 13.872-13.872 13.872h-46.059V35.233z"/></g><path d="M268.258 43.615h99.326a15.51 15.51 0 0 1 15.506 15.507v293.369a15.51 15.51 0 0 1-15.506 15.507h-99.326V43.615z" fill="#b57b76"/><linearGradient gradientUnits="userSpaceOnUse" id="A" x1="371.308" x2="-26.587" y1="97.281" y2="404.969"><stop offset=".01" stop-color="#78264d"/><stop offset="1" stop-color="#93486f"/></linearGradient><path d="M129.536 35.233h147.942l24.04 35.087c2.444 3.568 8.002 2.232 8.558-2.057l4.282-33.03h30.595c7.175 0 12.992 5.817 12.992 12.992v306.78c0 7.175-5.817 12.992-12.992 12.992H128.698c-9.49 0-17.183-7.693-17.183-17.184V53.255c0-9.953 8.068-18.022 18.021-18.022z" fill="url(#A)"/><path d="M367.051 79.716v107.243l24.069-99.8c.915-3.793-1.96-7.443-5.86-7.443h-18.209z" fill="#ddaea9"/><path d="M275.082 201.306l17.881-33.115c1.902-3.522-.648-7.8-4.652-7.8h-35.32l-13.609-25.202c-1.998-3.7-7.306-3.7-9.304 0l-13.608 25.202h-35.32c-4.003 0-6.554 4.277-4.652 7.8l17.881 33.115-17.881 33.115c-1.902 3.522.649 7.799 4.652 7.799h35.32l13.608 25.203c1.998 3.7 7.307 3.7 9.304 0l13.609-25.203h35.32c4.004 0 6.555-4.276 4.652-7.799l-17.881-33.115zm3.705-29.947l-9.938 18.403-9.938-18.403h19.876zm-16.17 29.947l-16.171 29.946h-23.435l-16.17-29.946 16.17-29.946h23.435l16.171 29.946zm-27.888-51.648l5.795 10.732h-11.59l5.795-10.732zm-44.057 21.701h19.874l-9.937 18.403-9.937-18.403zm0 59.893l9.937-18.403 9.937 18.403h-19.874zm44.057 21.7l-5.795-10.732h11.59l-5.795 10.732zm34.121-40.104l9.938 18.404h-19.875l9.937-18.404z" fill="#fff"/><path d="M139.146 323.046l1.483-20.025c.409-5.521 7.904-6.863 10.204-1.829l7.456 16.317c1.259 2.756-.018 6.006-2.816 7.167l-8.939 3.709c-3.682 1.527-7.682-1.364-7.388-5.339zM339.178 88.399c-2.006-1.276-4.69-.465-5.613 1.727-1.633 3.878-3.373 9.453-1.102 11.725.824.825 1.774 1.992 2.75 3.305 2.224 2.993 6.968 1.459 6.968-2.271V92.427c0-1.318-.673-2.545-1.785-3.253l-1.218-.775z" fill="#5b153e"/><path d="M159.483 191.128c3.947-29.271 25.252-53.812 53.556-62.25 15.352-4.577 30.036-3.984 43.285-.009 1.861.559 3.824-.438 4.377-2.301l2.209-7.428c.538-1.811-.461-3.758-2.27-4.3-8.214-2.463-16.907-3.803-25.912-3.803-22.875 0-43.782 8.536-59.74 22.574-1.236 1.088-1.549 2.902-.801 4.369l3.387 6.646-5.525-3.885c-1.486-1.046-3.546-.853-4.759.501-14.373 16.035-23.141 37.191-23.141 60.37 0 35 19.964 65.407 49.094 80.482 1.972 1.02 4.397.019 5.177-2.061l2.541-6.775c.671-1.79-.131-3.756-1.817-4.654-26.823-14.297-44.157-44.134-39.661-77.476zm122.585-63.636l-5.615 7.279c-.977 1.266-.646 3.063.678 3.957 20.631 13.947 34.114 37.692 33.535 64.548-.773 35.922-32.204 70.089-67.935 73.87-11.665 1.234-22.825-.279-33.021-3.864-1.682-.592-3.485.444-3.74 2.21l-1.316 9.114c-.194 1.343.592 2.657 1.881 3.081 12.25 4.025 25.635 5.523 39.553 3.805 42.821-5.285 76.411-41.149 79.047-84.214 2.04-33.317-14.061-63.08-39.33-80.401-1.2-.821-2.85-.535-3.737.615z" fill="#fff"/></svg>