<svg xmlns="http://www.w3.org/2000/svg" width="800" height="800" viewBox="0 0 512 512" xmlns:v="https://vecta.io/nano"><path d="M159.247 140.764l-10.856-.381s-10.788-3.436-2.194-16.714 24.349-15.269 32.306-34.355c-.001-.001 1.75 37.342-19.256 51.45z" fill="#bc6662"/><path d="M207.413 76.939c-3.08-5.057-9.303-6.885-14.434-4.19-6.944 3.647-15.999 10.919-20.268 24.966-.826 2.717-1.231 5.559-1.514 8.394-.675 6.766-4.229 24.065-22.807 34.274 0 0 23.972 17.368 42.644 0 0 0 25.738-23.158 43.401-11.316.001-.001-16.655-35.107-27.022-52.128zm49.386 48.829s-.29-18.089 16.448-36.454c0 0 18.718-18.938 19.906-39.422.651-11.22-7.511-21.032-18.195-22.511-9.591-1.328-23.388.671-39.542 14.53l-6.192 5.648c-2.578 2.352-3.176 6.282-1.4 9.336 7.631 13.123 26.839 47.896 28.975 68.873z" fill="#db8b84"/><path d="M203.528 90.637s6.81 8.286 22.225.511c4.873-2.458 9.024-6.448 11.164-11.634 1.792-4.341 2.518-10.034-.762-16.387 0-.001 20.479 21.356 23.949 69.5H235.46s-23.949-13.393-31.932-41.99z" fill="#f7bbb6"/><path d="M219.402 95.122c-4.328.815-12.891.154-15.875-4.485-4.413-6.859-1.95-14.104 6.724-21.307 0 0 19.555-15.094 26.212-5.863 1.601 2.221 3.328 8.548 2.513 13.73-1.108 7.06-5.908 15.351-19.574 17.925z" fill="#bc6662"/><linearGradient gradientUnits="userSpaceOnUse" id="A" x1="241.963" x2="302.729" y1="247.553" y2="749.431"><stop offset=".01" stop-color="#f7bbb6"/><stop offset="1" stop-color="#db8b84"/></linearGradient><path d="M236.934 154.877s-10.45 6.399-14.464 20.438c0 0-19.213 63.96-69.268 101.235-5.465 4.068-10.661 8.464-15.156 13.584-15.415 17.556-43.037 60.91-20.768 115.13 0 0 23.333 63.795 122.699 78.045 36.654 5.257 74.332-1.944 105.282-22.274 23.375-15.354 46.291-39.707 55.298-77.974 3.037-12.905 3.412-26.251.628-39.214-3.76-17.511-13.531-42.077-38.519-63.32-16.019-13.619-31.11-28.284-44.177-44.757-19.272-24.297-43.313-57.708-52.919-83.941l-28.636 3.048z" fill="url(#A)"/><path d="M362.667 280.527c-16.019-13.619-31.11-28.284-44.176-44.757l-9.402-12.128c5.937 22.998 10.708 49.898 11.044 77.766 1.059 87.645-68.787 155.834-149.798 159.113 17.465 9.977 40.192 18.564 69.643 22.788 36.654 5.257 74.331-1.944 105.282-22.274 23.375-15.354 46.291-39.707 55.298-77.974 3.037-12.905 3.412-26.251.628-39.214-3.76-17.51-13.532-42.076-38.519-63.32zM245.515 134.099s-7.19 30.458-12.992 45.102c-.555 1.4-.826 2.9-.657 4.406l.037.297c1.307 9.828 15.175 9.394 16.213-.482.239-2.28.328-5 .158-8.226-.001-.001-4.585-25.448-2.759-41.097z" fill="#db8b84"/><path d="M251.951 151.52s19.108 47.331-2.675 100.732c-1.583 3.881.86 8.226 5.005 8.857h0c3.179.485 6.224-1.406 7.175-4.479 4.897-15.825 17.456-64.084 3.036-104.265l-12.541-.845z" fill="#a0376f"/><path d="M222.47 135.7h0a7.81 7.81 0 0 0 6.856 7.75l32.909 4.042c4.655.571 8.761-3.061 8.761-7.75v-.517a7.81 7.81 0 0 0-6.977-7.764l-32.91-3.526c-4.614-.494-8.639 3.124-8.639 7.765zm29.897 21.488s38.318 46.093 15.859 170.947c-.753 4.185 1.956 8.211 6.132 9.014h0c4.191.807 8.234-1.916 9.045-6.107 5.226-27.018 19.715-120.298-16.305-176.165l-14.731 2.311z" fill="#c14c82"/><path d="M222.47 150.009v.81c0 3.783 2.9 6.935 6.67 7.249l33.977 2.831c4.241.354 7.879-2.993 7.879-7.249h0c0-3.718-2.803-6.837-6.5-7.232l-33.977-3.641c-4.299-.462-8.049 2.908-8.049 7.232z" fill="#a0376f"/></svg>