<svg xmlns="http://www.w3.org/2000/svg" width="800" height="800" viewBox="0 0 512 512" xmlns:v="https://vecta.io/nano"><path fill="#5b153e" d="M286.189 10.023l-88.355 86.174-35.996 137.442 54.54 221.432 77.447 46.906 14.181-50.178 29.451-311.97z"/><linearGradient gradientUnits="userSpaceOnUse" id="A" x1="352.611" x2="198.471" y1="409.254" y2="40.885"><stop offset="0" stop-color="#cc5697"/><stop offset="1" stop-color="#e585be"/></linearGradient><path fill="url(#A)" d="M337.457 139.829l-54.54-58.903-75.266 104.717 86.174 316.334 14.181-50.177z"/><path fill="#f49fd3" d="M337.457 139.829h0L286.189 10.023l-3.272 70.903z"/><g fill="#a03774"><path d="M282.917 80.926l3.272-70.903-88.355 86.174 9.817 89.446z"/><path d="M207.651 185.643l8.727 269.428 77.447 46.906z"/></g><path d="M135.817 47.732s2.546 24.612-17.54 35.928c0 0 20.086 6.602 21.218 30.459 0 0 .849-27.347 16.407-35.551 0 0-17.539-7.072-20.085-30.836zm237.82 175.075s2.547 24.611-17.539 35.928c0 0 20.086 6.602 21.217 30.459 0 0 .849-27.347 16.408-35.551 0 0-17.539-7.073-20.086-30.836zM154.63 356.787s2.546 24.612-17.54 35.929c0 0 20.086 6.602 21.218 30.459 0 0 .849-27.347 16.408-35.551 0 0-17.54-7.073-20.086-30.837z" fill="#ffe9fb"/></svg>