<svg xmlns="http://www.w3.org/2000/svg" width="800" height="800" viewBox="0 0 48 48" xmlns:v="https://vecta.io/nano"><defs><linearGradient id="A" x1=".5" x2=".5" y2="1"><stop offset="0" stop-color="#8f5bff"/><stop offset="1" stop-color="#1600c8"/></linearGradient><clipPath id="B"><path d="M0 0h48v48H0z"/></clipPath></defs><g clip-path="url(#B)"><path fill="rgba(255,255,255,0)" d="M0 0h48v48H0z"/><g fill="url(#A)"><path d="M17 30.526a12.53 12.53 0 0 1 7.956-11.673C23.699 17.55 22.998 15.81 23 14v-1a7 7 0 1 1 14 0v1a6.98 6.98 0 0 1-2.259 5.15A12.53 12.53 0 0 1 42 30.526C42 34.105 36.4 35 29.5 35S17 34.105 17 30.526z"/><path d="M29.5 34.5c3.869 0 6.714-.286 8.697-.874 2.223-.659 3.303-1.673 3.303-3.1 0-2.341-.671-4.61-1.942-6.561a12.03 12.03 0 0 0-5.028-4.361l-.679-.315.55-.507A6.52 6.52 0 0 0 36.5 14v-1A6.51 6.51 0 0 0 30 6.5 6.51 6.51 0 0 0 23.5 13v1a6.47 6.47 0 0 0 1.816 4.506l.519.539-.697.273a11.99 11.99 0 0 0-5.496 4.348 11.97 11.97 0 0 0-2.142 6.859c0 1.426 1.081 2.44 3.303 3.1 1.983.588 4.827.874 8.697.874m0 .5c-6.904 0-12.5-.895-12.5-4.474 0-5.311 3.299-9.851 7.956-11.673C23.745 17.595 23 15.884 23 14v-1A7 7 0 1 1 37 13v1a6.98 6.98 0 0 1-2.259 5.15A12.53 12.53 0 0 1 42 30.526C42 34.105 36.404 35 29.5 35z" fill="rgba(255,255,255,0.3)"/></g><g fill="rgba(136,125,255,0.7)"><path d="M6 37a14 14 0 0 1 8.735-12.977A8 8 0 0 1 20 10a8 8 0 0 1 5.265 14.023A14 14 0 0 1 34 37c0 4-6.268 5-14 5S6 41 6 37z"/><path d="M20 41.5c4.339 0 7.531-.32 9.757-.98C32.276 39.775 33.5 38.623 33.5 37c0-2.739-.816-5.376-2.359-7.626-1.507-2.198-3.604-3.888-6.064-4.887l-.752-.305.611-.534C26.565 22.221 27.5 20.163 27.5 18A7.51 7.51 0 0 0 20 10.5a7.51 7.51 0 0 0-7.5 7.5c0 2.163.935 4.222 2.564 5.647l.611.534-.752.305a13.49 13.49 0 0 0-6.064 4.887C7.316 31.624 6.5 34.261 6.5 37c0 1.623 1.224 2.775 3.742 3.521 2.227.659 5.419.98 9.758.98m0 .5C12.268 42 6 41 6 37c0-5.87 3.612-10.896 8.735-12.977A7.98 7.98 0 0 1 12 18 8 8 0 0 1 28 18c0 2.402-1.059 4.557-2.735 6.023C30.388 26.104 34 31.13 34 37c0 4-6.268 5-14 5z" fill="rgba(255,255,255,0.3)"/></g></g></svg>