<svg xmlns="http://www.w3.org/2000/svg" width="800" height="800" viewBox="0 0 512 512" xmlns:v="https://vecta.io/nano"><linearGradient gradientUnits="userSpaceOnUse" id="A" x1="65.335" x2="367.386" y1="188.097" y2="393.308"><stop offset=".01" stop-color="#ffddcd"/><stop offset="1" stop-color="#f79a80"/></linearGradient><path d="M56.727 159.284c3.669 8.513 9.077 23.904 9.053 40.645-.003 2.011 1.292 3.834 3.258 4.256 4.574.979 12.198 4.247 12.198 15.139 0 0 0 9.762-8.884 13.65-1.684.736-2.75 2.422-2.567 4.25 1.805 18.046 10.158 106.854 7.208 176.821l16.974 10.964c2.614 1.632 6.063.344 6.936-2.611 1.631-5.515 4.064-14.063 5.793-21.555 0 0 5.652 16.554 6.122 33.596.067 2.421 2.012 4.35 4.432 4.465 11.832.563 44.852-.203 67.712-23.444 0 0 45.973-36.775 90.408-20.745 0 0 57.906-106.02 8.031-276.491 0 0-16.832-.229-33.528 3.832-2.428.591-4.262 2.57-4.603 5.045-.921 6.686-3.036 20.308-5.986 28.737-.559 1.599-2.856 1.497-3.31-.134l-5.303-20.092c-.825-3.34-4.181-5.364-7.5-4.457-8.589 2.348-26.073 8.633-51.411 24.99 0 0-36.283 23.009-75.414 7.301-2.973-1.193-5.908-2.412-8.949-3.419-6.126-2.027-16.693-5.262-26.005-6.807-3.394-.564-6.028 2.905-4.665 6.064z" fill="url(#A)"/><path d="M275.369 394.714s57.906-106.02 8.031-276.491c0 0-8.926-.113-20.213 1.386 5.65 32.104 25.88 167.167-12.577 271.068 8.101-.108 16.456 1.041 24.759 4.037z" fill="#f79a80"/><path d="M122.715 215.244h0c-2.714.44-4.709 2.784-4.709 5.534v26.482c0 3.097 2.51 5.606 5.606 5.606h1.991c3.262 0 5.835-2.773 5.59-6.026l-1.991-26.482a5.61 5.61 0 0 0-6.487-5.114zm24.314 6.468v19.769c0 2.857 3.204 4.544 5.559 2.927l9.335-6.409c2.674-1.836 3.752-5.258 2.613-8.294h0c-.441-1.177-1.188-2.214-2.165-3.005l-9.558-7.745c-2.32-1.882-5.784-.23-5.784 2.757zm23.218-7.651v1.385c0 2.474 1.85 4.556 4.306 4.848h0c2.904.346 5.458-1.923 5.458-4.848v-1.385a4.88 4.88 0 0 0-3.752-4.749h0c-3.068-.73-6.012 1.595-6.012 4.749zm36.729-13.521h0a4.29 4.29 0 0 0-2.515 4.274l1.601 18.892c.508 5.995 7.2 9.377 12.28 6.154 1.259-.799 2.495-1.635 3.631-2.482 3.637-2.714 4.265-7.916 1.43-11.46l-11.317-14.146a4.29 4.29 0 0 0-5.11-1.232zm18.927-2.679l6.105 8.546c1.474 2.063 4.665 1.583 5.467-.822l1.566-4.696c.353-1.06.109-2.227-.637-3.057l-4.928-5.475a3.1 3.1 0 0 0-3.887-.594l-2.743 1.626c-1.563.926-1.999 2.993-.943 4.472zm46.752-20.981l-11.89 1.877a4.28 4.28 0 0 0-3.562 4.997c.825 4.511 2.267 11.906 4.032 18.969 1.004 4.01 6.533 4.436 8.137.626l8.651-20.558a4.3 4.3 0 0 0-3.961-5.964h-.737a4.31 4.31 0 0 0-.67.053zM124.167 327.984l-.396 3.459a6.49 6.49 0 0 0 3.794 6.663h0a6.49 6.49 0 0 0 7.245-1.334l2.961-2.961a6.49 6.49 0 0 0 1.333-7.245l-.224-.498a6.49 6.49 0 0 0-5.923-3.836h-2.341c-3.299 0-6.073 2.475-6.449 5.752zm3.292 32.839l1.369-7.87a3.45 3.45 0 0 1 3.4-2.859h17.234c3.761 0 4.809 5.163 1.344 6.629l-18.603 7.869c-2.516 1.064-5.212-1.077-4.744-3.769zm52.917-49.82l3.39 30.448c.226 2.033 2.152 3.423 4.153 2.993 3.006-.646 7.14-1.706 9.716-3.076 1.203-.64 1.888-1.94 1.787-3.299l-1.197-16.049c-.073-.974.271-1.933.945-2.64l4.081-4.275a3.45 3.45 0 0 0 .955-2.383v-4.745a3.45 3.45 0 0 0-3.982-3.409l-16.948 2.644a3.45 3.45 0 0 0-2.9 3.791zm35.985-6.603l.723 4.427c.446 2.735 3.772 3.854 5.782 1.945h0a3.45 3.45 0 0 0 1.074-2.502v-4.555a3.45 3.45 0 0 0-4.057-3.397l-.723.129a3.45 3.45 0 0 0-2.799 3.953zm21.952-6.105l-7.583 29.685c-.608 2.379 1.394 4.614 3.826 4.271l5.842-.826a3.43 3.43 0 0 0 2.849-2.536c.919-3.493 3.604-10.075 10.961-11.591 1.372-.283 2.421-1.406 2.646-2.789l.827-5.048a3.45 3.45 0 0 0-1.296-3.287l-12.62-9.754a3.45 3.45 0 0 0-5.452 1.875z" fill="#e2526f"/><path d="M290.221 284.347l-10.5 5.016a3.45 3.45 0 0 0-1.848 4.002l6.226 23.361c.925 3.472 5.88 3.41 6.693-.089 2.087-8.973 4.392-20.804 4.378-29.232-.005-2.521-2.675-4.145-4.949-3.058zm-9.922-85.899l-2.621 7.16a1.64 1.64 0 0 0 1.833 2.171l5.358-.992c1.039-.192 1.626-1.305 1.197-2.271l-2.736-6.169a1.64 1.64 0 0 0-3.031.101z" fill="#c7304d"/><path d="M275.369 106.938s13.207-17.457 43.699-31.779c22.404-10.522 47.383-14.84 72.006-12.31 11.794 1.212 23.377 3.977 29.225 9.825 0 0-3.987 32.563-17.943 79.082-.001 0-96.473 9.381-126.987-44.818z" fill="#a34f46"/><path d="M338.829 107.26l4.513 41.156c30.76 6.067 59.014 3.339 59.014 3.339 13.956-46.519 17.943-79.081 17.943-79.081s-20.267 37.549-81.47 34.586z" fill="#f79a80"/><path d="M455.64 126.531s-17.12-17.622-53.018-19.271l-8.394 45.116c.001 0 48.958-1.071 61.412-25.845z" fill="#a34f46"/><path d="M391.76 97.485c-2.861 14.526-9.439 35.787-25.377 54.075 20.498 1.678 35.973.194 35.973.194 13.956-46.519 17.943-79.081 17.943-79.081s-7.858 14.542-28.539 24.812z" fill="#ce735f"/><linearGradient gradientUnits="userSpaceOnUse" id="B" x1="286.225" x2="562.913" y1="204.067" y2="468.458"><stop offset=".01" stop-color="#ffddcd"/><stop offset="1" stop-color="#f79a80"/></linearGradient><path d="M275.369 106.938s61.723 58.783 180.271 19.594c0 0-21.554 216.52-58.784 293.918 0 0-21.566 23.226-43.328 29.226-3.007.829-6.047-1.267-6.544-4.346l-4.013-24.88s-4.845 13.729-12.336 26.521c-1.318 2.251-4.04 3.252-6.483 2.337-10.654-3.988-39.778-15.392-61.392-28.563-4.424-2.695-6.023-8.305-3.65-12.908 14.403-27.934 57.653-131.19 16.259-300.899z" fill="url(#B)"/><path d="M382.049 139.908c7.991 7.34 21.196 23.707 19.499 50.862 0 0-1.614 99.778-19.575 198.355-2.859 15.694-9.221 30.677-19.434 42.932-1.609 1.931-3.349 3.854-5.227 5.734-1.593 1.596-4.26 1.264-5.334-.719l-9.008-16.624 4.013 24.879c.497 3.079 3.537 5.175 6.544 4.347 21.762-6 43.328-29.226 43.328-29.226 37.23-77.397 58.784-293.918 58.784-293.918-27.659 9.145-52.181 12.91-73.59 13.378z" fill="#f79a80"/><path d="M274.063 176.827h-.737c-.225 0-.449.018-.671.053l-2.014.317 1.488 19.6 5.895-14.006a4.3 4.3 0 0 0-3.961-5.964z" fill="#9c304d"/></svg>