<?xml version="1.0" encoding="iso-8859-1"?>
<!-- Uploaded to: SVG Repo, www.svgrepo.com, Generator: SVG Repo Mixer Tools -->
<svg height="800px" width="800px" version="1.1" id="Layer_1" xmlns="http://www.w3.org/2000/svg" xmlns:xlink="http://www.w3.org/1999/xlink" 
	 viewBox="0 0 511.986 511.986" xml:space="preserve">
<path style="fill:#FFCE54;" d="M351.975,490.643H159.994c-4.875,0-9.14-3.312-10.343-8.031
	c-0.203-0.828-21.656-84.342-63.687-212.629c-1.125-3.438-0.438-7.203,1.828-10.015c0.047-0.07,7.547-9.609,11.093-22.586
	c4.406-16.102,0.984-29.671-10.453-41.491c-8.297-8.562-8.797-21.68-1.5-38.968c4.703-11.148,12.859-24.671,24.218-40.203
	c18.906-25.843,40.187-48.421,41.077-49.374c4.047-4.266,10.766-4.477,15.047-0.453c0.422,0.391,43.155,39.781,87.936,39.781
	c45.078,0,89.187-39.468,89.624-39.867c4.312-3.891,10.921-3.633,14.921,0.578c0.891,0.953,22.156,23.523,41.062,49.351
	c18.359,25.086,40.687,60.585,22.719,79.155c-11.422,11.804-14.891,25.96-10.297,42.077c3.609,12.664,10.859,21.906,10.938,22
	c2.266,2.812,2.953,6.577,1.828,10.015c-42.047,128.287-63.484,211.801-63.703,212.629
	C361.1,487.331,356.85,490.643,351.975,490.643z"/>
<path style="fill:#E6E9ED;" d="M409.429,321.569L293.134,257.32c-4.75-2.625-10.719-1.258-13.859,3.18l-21.328,30.163
	c-1.297,1.828-1.969,4-1.969,6.203c0.016-2.203-0.656-4.375-1.953-6.203L232.697,260.5c-3.141-4.438-9.109-5.805-13.875-3.18
	l-116.279,64.249c6.969,22.108,13.172,42.358,18.609,60.482l129.56-76.029c2.578-1.516,4.406-4.031,5.031-6.953
	c0.156-0.719,0.234-1.453,0.234-2.188c0.016,0.734,0.094,1.469,0.25,2.188c0.625,2.922,2.453,5.438,5.016,6.953l129.576,76.029
	C396.257,363.928,402.444,343.678,409.429,321.569z"/>
<g>
	<path style="fill:#434A54;" d="M509.817,227.656c-3.5-29.468-10.688-51.53-21.359-65.584c-3.562-4.688-10.25-5.602-14.953-2.039
		c-3.906,2.969-5.172,8.101-3.438,12.445l-44.029,17.586l-1.422-2.047c-3.375-4.828-10.031-6-14.859-2.625s-6,10.023-2.625,14.852
		l22.28,31.866c0.797,1.133,1.812,2.102,2.969,2.852l63.14,40.655c1.75,1.141,3.766,1.703,5.781,1.703
		c1.703,0,3.422-0.406,4.984-1.234c3.422-1.812,5.578-5.32,5.672-9.172C511.973,266.186,512.348,248.922,509.817,227.656z"/>
	<path style="fill:#434A54;" d="M102.23,185.391c-4.828-3.375-11.484-2.203-14.859,2.625l-1.422,2.047l-44.031-17.586
		c1.734-4.344,0.469-9.476-3.437-12.445c-4.703-3.562-11.391-2.648-14.953,2.039c-10.671,14.054-17.859,36.117-21.359,65.584
		c-2.531,21.266-2.156,38.53-2.141,39.257c0.094,3.852,2.25,7.359,5.672,9.172c1.562,0.828,3.281,1.234,4.984,1.234
		c2.016,0,4.031-0.562,5.781-1.703l63.14-40.655c1.156-0.75,2.172-1.719,2.969-2.852l22.281-31.866
		C108.23,195.415,107.058,188.766,102.23,185.391z"/>
</g>
<path style="fill:#F6BB42;" d="M255.977,170.665c5.891,0,10.672-4.773,10.672-10.664v-54.14c-3.797,0.516-7.609,0.812-11.438,0.812
	c-3.312,0-6.625-0.227-9.891-0.625V160C245.321,165.891,250.087,170.665,255.977,170.665z"/>
<g>
	<path style="fill:#E6E9ED;" d="M425.757,128.721c-0.859-3.516-3.453-6.352-6.875-7.523l-41.969-14.437
		c-4.062-1.398-8.562-0.227-11.422,2.984L258.696,229.383c-3.312,3.711-3.625,9.211-0.75,13.266l21.328,30.171
		c1.844,2.609,4.766,4.25,7.969,4.469c0.25,0.031,0.484,0.031,0.734,0.031c2.938,0,5.75-1.203,7.766-3.359l127.436-135.372
		C425.663,135.955,426.632,132.236,425.757,128.721z"/>
	<path style="fill:#E6E9ED;" d="M253.274,229.383L150.776,114.556c-3.078-3.438-8.016-4.516-12.234-2.672
		c-4.219,1.852-6.781,6.203-6.344,10.789l6.25,65.397c0.219,2.359,1.219,4.578,2.844,6.297l74.92,79.592
		c2.031,2.156,4.844,3.359,7.766,3.359c0.25,0,0.5,0,0.75-0.031c3.188-0.219,6.125-1.859,7.969-4.469l21.328-30.171
		C256.899,238.594,256.587,233.094,253.274,229.383z"/>
</g>
<path style="fill:#F6BB42;" d="M146.136,469.301c2.297,8.53,3.469,13.124,3.516,13.312c1.203,4.719,5.468,8.031,10.343,8.031
	h191.981c4.875,0,9.125-3.312,10.328-8.031c0.047-0.188,1.234-4.781,3.531-13.312H146.136z"/>
<g>
	<path style="fill:#DA4453;" d="M511.567,157.118c-6.344-22.625-23.938-43.32-52.297-61.506
		c-20.421-13.102-38.951-19.945-39.732-20.227c-5.531-2.023-11.656,0.82-13.688,6.352c-1.047,2.867-0.781,5.898,0.484,8.43
		l-44.75,22.397c-0.5-0.992-1.156-1.93-1.969-2.757c-4.172-4.172-10.922-4.188-15.093-0.023l-21.406,21.328
		c-3.609,3.594-4.172,9.234-1.344,13.477l42.655,63.991c2.016,3.031,5.391,4.75,8.875,4.75c1.125,0,2.266-0.18,3.375-0.547
		l127.998-42.664C510.067,168.321,513.114,162.603,511.567,157.118z"/>
	<path style="fill:#DA4453;" d="M167.463,109.784c-4.172-4.164-10.922-4.148-15.078,0.023c-0.828,0.828-1.484,1.765-1.984,2.757
		l-44.75-22.397c1.266-2.531,1.531-5.562,0.484-8.43c-2.031-5.531-8.156-8.375-13.687-6.352
		c-0.781,0.281-19.312,7.125-39.734,20.227c-28.358,18.187-45.951,38.882-52.295,61.506c-1.531,5.484,1.5,11.203,6.891,13
		l127.998,42.664c1.109,0.367,2.25,0.547,3.375,0.547c3.484,0,6.859-1.719,8.875-4.75l42.655-63.991
		c2.828-4.242,2.266-9.883-1.344-13.477L167.463,109.784z"/>
</g>
<g>
	<path style="fill:#ED5564;" d="M442.068,65.128c-3.172-1.578-78.155-38.726-132.044-43.741c-5.344-0.492-10.219,3.047-11.391,8.273
		l-12.719,56.194c-1.062,4.719,1.188,9.562,5.469,11.804l55.732,29.132c1.547,0.805,3.234,1.211,4.938,1.211
		c1.641,0,3.266-0.375,4.766-1.125l85.249-42.663c3.625-1.812,5.906-5.508,5.906-9.547
		C447.959,70.628,445.678,66.932,442.068,65.128z"/>
	<path style="fill:#ED5564;" d="M213.368,29.66c-1.188-5.227-6.062-8.766-11.406-8.273C148.073,26.402,73.09,63.55,69.918,65.128
		c-3.609,1.805-5.89,5.5-5.906,9.539c0,4.039,2.281,7.734,5.906,9.547l85.249,42.663c1.5,0.75,3.125,1.125,4.766,1.125
		c1.703,0,3.391-0.406,4.938-1.211l55.733-29.132c4.281-2.242,6.531-7.085,5.469-11.804L213.368,29.66z"/>
	<path style="fill:#ED5564;" d="M255.977,223.992c-23.515,0-42.656,19.141-42.656,42.663c0,23.523,19.141,42.664,42.656,42.664
		c23.531,0,42.672-19.141,42.672-42.664C298.649,243.133,279.509,223.992,255.977,223.992z"/>
</g>
<path style="fill:#DA4453;" d="M266.649,266.655c0,5.883-4.781,10.664-10.672,10.664s-10.656-4.781-10.656-10.664
	c0-5.882,4.766-10.663,10.656-10.663C261.867,255.992,266.649,260.773,266.649,266.655z"/>
</svg>