<?xml version="1.0" encoding="iso-8859-1"?>
<!-- Uploaded to: SVG Repo, www.svgrepo.com, Generator: SVG Repo Mixer Tools -->
<svg version="1.1" id="Layer_1" xmlns="http://www.w3.org/2000/svg" xmlns:xlink="http://www.w3.org/1999/xlink" 
	 viewBox="0 0 511.993 511.993" xml:space="preserve">
<path style="fill:#E6E9ED;" d="M252.5,479.898c-5.891,0-10.672-4.766-10.672-10.656V42.75c0-5.89,4.781-10.671,10.672-10.671
	c5.89,0,10.656,4.781,10.656,10.671v426.492C263.156,475.133,258.391,479.898,252.5,479.898z"/>
<path style="fill:#965353;" d="M423.154,213.325c5.609-8.765,20.468-28.375,19.405-50.343c-1.219-25.406-11-46.64-29.89-64.905
	c-16.172-15.625-36.625-27.187-58.297-39.421c-26.749-15.109-54.404-30.733-73.732-54.687C278.624,1.453,275.562,0,272.343,0
	h-30.515c-5.625,0-10.281,4.359-10.64,9.984c-1.219,18.812,7.312,36.375,26.077,53.687c15.172,13.984,35.156,26.219,54.469,38.046
	c29.64,18.125,60.279,36.875,61.42,56.03c1.25,21.093-12.656,48.015-12.781,48.265c-0.812,1.531-1.219,3.234-1.219,4.953v90.046
	c0,1.719,0.406,3.422,1.203,4.953c0.141,0.266,14.047,27.17,12.797,48.264c-1.141,19.156-31.78,37.906-61.42,56.047
	c-19.312,11.828-39.297,24.047-54.469,38.047c-18.765,17.295-27.296,34.857-26.077,53.686c0.359,5.609,5.015,9.984,10.64,9.984
	h30.515c3.219,0,6.281-1.469,8.297-3.969c19.312-23.953,46.983-39.578,73.732-54.688c21.656-12.248,42.125-23.795,58.297-39.42
	c18.89-18.266,28.671-39.5,29.89-64.922c1.062-21.967-13.796-41.576-19.405-50.342V213.325z"/>
<rect x="359.156" y="213.326" style="fill:#ED5564;" width="64" height="85.33"/>
<rect x="359.156" y="245.326" style="fill:#DA4453;" width="64" height="21.328"/>
<path style="fill:#CCD1D9;" d="M175.924,74.656h-63.983c-2.844,0-5.547,1.125-7.547,3.125s-3.125,4.719-3.125,7.547v74.67
	c0,2.953,1.219,5.781,3.391,7.796l22.843,21.328c1.969,1.844,4.578,2.875,7.281,2.875h17.687c2.641,0,5.203-0.984,7.172-2.781
	l23.468-21.328c2.219-2.031,3.484-4.89,3.484-7.89v-74.67C186.595,79.437,181.814,74.656,175.924,74.656z"/>
<path style="fill:#F6BB42;" d="M143.924,335.15c-5.891,0-10.656-4.779-10.656-10.67V74.656c0-5.891,4.766-10.656,10.656-10.656
	s10.672,4.765,10.672,10.656v249.825C154.596,330.371,149.815,335.15,143.924,335.15z"/>
<path style="fill:#E6E9ED;" d="M144.034,42.656H80.035c-2.828,0-5.531,1.125-7.531,3.125s-3.125,4.719-3.125,7.547v74.67
	c0,2.953,1.219,5.781,3.375,7.797l22.859,21.328c1.968,1.844,4.578,2.875,7.281,2.875h17.672c2.656,0,5.218-0.984,7.187-2.781
	l23.453-21.328c2.234-2.031,3.5-4.891,3.5-7.891v-74.67C154.705,47.437,149.924,42.656,144.034,42.656z"/>
<path style="fill:#FFCE54;" d="M111.956,303.152c-5.891,0-10.672-4.781-10.672-10.672V42.656c0-5.89,4.781-10.656,10.672-10.656
	s10.672,4.766,10.672,10.656V292.48C122.628,298.371,117.847,303.152,111.956,303.152z"/>
<path style="fill:#ED5564;" d="M179.455,248.7l-85.342-29.656c-3.266-1.125-6.859-0.609-9.672,1.391
	c-2.812,2-4.484,5.234-4.484,8.687v241.714c0,20.875,30.265,25.688,40.218,27.266c17.687,2.797,37.921,3.219,48.421,3.219l0,0
	c4.672,0,7.531-0.078,7.656-0.078c5.765-0.172,10.359-4.891,10.359-10.672V258.762C186.611,254.231,183.736,250.184,179.455,248.7z"
	/>
<g>
	<path style="opacity:0.2;fill:#FFFFFF;enable-background:new    ;" d="M179.455,248.7l-85.342-29.656
		c-2.859-0.984-5.984-0.719-8.609,0.719l83.28,28.937c4.281,1.484,7.172,5.531,7.172,10.062v231.809
		c0,5.781-4.594,10.5-10.375,10.672c-0.062,0-0.922,0.016-2.422,0.047c2.016,0.016,3.844,0.031,5.438,0.031l0,0
		c4.672,0,7.531-0.078,7.656-0.078c5.765-0.172,10.359-4.891,10.359-10.672V258.762C186.611,254.231,183.736,250.184,179.455,248.7z
		"/>
	<path style="opacity:0.2;fill:#FFFFFF;enable-background:new    ;" d="M423.154,213.325c5.609-8.765,20.468-28.375,19.405-50.343
		c-1.219-25.406-11-46.64-29.89-64.905c-16.172-15.625-36.625-27.187-58.297-39.421c-26.749-15.109-54.404-30.733-73.732-54.687
		C278.624,1.453,275.562,0,272.343,0h-10.672c3.234,0,6.281,1.453,8.312,3.969c19.312,23.953,46.969,39.578,73.718,54.687
		c21.671,12.234,42.14,23.797,58.296,39.421c18.891,18.265,28.671,39.5,29.905,64.905c1.047,21.968-13.812,41.578-19.405,50.343
		v85.327c5.594,8.766,20.452,28.375,19.405,50.342c-1.234,25.422-11.015,46.656-29.905,64.922
		c-16.156,15.625-36.625,27.172-58.296,39.42c-26.749,15.109-54.405,30.734-73.718,54.688c-2.031,2.5-5.078,3.969-8.312,3.969
		h10.672c3.219,0,6.281-1.469,8.297-3.969c19.312-23.953,46.983-39.578,73.732-54.688c21.656-12.248,42.125-23.795,58.297-39.42
		c18.89-18.266,28.671-39.5,29.89-64.922c1.062-21.967-13.796-41.576-19.405-50.342V213.325z"/>
</g>
</svg>