<?xml version="1.0" encoding="iso-8859-1"?>
<!-- Uploaded to: SVG Repo, www.svgrepo.com, Generator: SVG Repo Mixer Tools -->
<svg height="800px" width="800px" version="1.1" id="Layer_1" xmlns="http://www.w3.org/2000/svg" xmlns:xlink="http://www.w3.org/1999/xlink" 
	 viewBox="0 0 511.992 511.992" xml:space="preserve">
<path style="fill:#ED5564;" d="M490.617,201.701l-5.312-136.795c-0.219-5.719-4.922-10.25-10.656-10.25h-53.326
	c-5.734,0-10.438,4.531-10.656,10.25l-5.328,137.342c-0.125,2.891,0.953,5.718,2.969,7.796c2,2.094,4.781,3.281,7.688,3.281h63.998
	c0,0,0,0,0.016,0c5.891,0,10.656-4.781,10.656-10.671C490.664,202.326,490.648,202.013,490.617,201.701z"/>
<g>
	<polygon style="fill:#DA4453;" points="407.807,138.655 488.18,138.655 487.351,117.327 408.635,117.327 	"/>
	<polygon style="fill:#DA4453;" points="406.15,181.326 489.836,181.326 489.008,159.998 406.978,159.998 	"/>
</g>
<path style="fill:#F6BB42;" d="M240.98,281.762l-6.468-3.734V233.95l6.468-3.734l23.688,2.844l60.062-67.733l-88.694,18.156
	l-9.367,21.938l-6.82,3.937l-37.828-21.843v-7.875l14.312-19.093l-28.632-85.891l-28.632,85.889l14.32,19.093v8.656l-37.147,21.453
	l-7.5-4.328l-9.375-21.938l-88.703-18.155l60.069,67.733l23.688-2.844l7.843,4.531v42.484l-7.843,4.531l-23.688-2.844
	l-60.069,67.732l88.701-18.139l9.375-21.953l7.5-4.328l37.147,21.453v8.654l-14.32,19.094l28.632,85.891l28.632-85.891
	l-14.312-19.094v-7.873l37.828-21.844l6.82,3.938l9.367,21.938l88.694,18.154l-60.062-67.732L240.98,281.762z M168.466,277.324
	c-11.781,0-21.328-9.547-21.328-21.328c0-11.797,9.546-21.344,21.328-21.344c11.781,0,21.335,9.547,21.335,21.344
	C189.802,267.777,180.247,277.324,168.466,277.324z"/>
<path style="fill:#AAB2BC;" d="M508.867,216.45l-21.344-21.343c-2-2-4.703-3.109-7.531-3.109h-63.998
	c-2.828,0-5.547,1.109-7.547,3.109l-21.328,21.343c-2,2-3.125,4.703-3.125,7.546c0,100.437,127.998,214.716,127.998,0
	C511.992,221.153,510.867,218.45,508.867,216.45z"/>
<path style="fill:#E6E9ED;" d="M383.994,223.996c0,100.437,14.734,171.638,27.094,213.669c13.594,46.201,27.28,68.389,27.858,69.311
	c1.812,2.891,4.906,4.75,8.312,4.984c0.25,0.016,0.484,0.031,0.734,0.031V245.325l-63.233-25.296
	C384.26,221.278,383.994,222.621,383.994,223.996z"/>
<path style="fill:#CCD1D9;" d="M511.992,223.996c0,100.437-14.734,171.638-27.109,213.669
	c-13.578,46.201-27.281,68.389-27.844,69.311c-1.812,2.891-4.905,4.75-8.327,4.984c-0.234,0.016-0.484,0.031-0.719,0.031V245.325
	l63.233-25.296C511.711,221.278,511.992,222.621,511.992,223.996z"/>
<g>
	<path style="fill:#FFCE54;" d="M167.701,447.994c-4.586,0-8.664-2.953-10.117-7.297l-28.632-85.906
		c-1.109-3.312-0.516-6.969,1.586-9.766l11.633-15.514l-25.382-14.641l-7.609,17.826c-1.375,3.219-4.242,5.547-7.672,6.25
		l-88.701,18.156c-4.5,0.922-9.078-1.141-11.375-5.109c-2.297-3.984-1.789-8.984,1.258-12.422l60.069-67.732
		c2.32-2.625,5.781-3.938,9.257-3.516l19.586,2.359v-29.39l-19.586,2.359c-3.476,0.422-6.937-0.891-9.257-3.516L2.688,172.404
		c-3.047-3.438-3.555-8.437-1.258-12.406c2.297-3.984,6.875-6.047,11.375-5.125l88.701,18.156c3.43,0.703,6.297,3.031,7.672,6.25
		l7.609,17.828l25.382-14.641l-11.633-15.516c-2.102-2.796-2.695-6.453-1.586-9.765l28.632-85.905
		c1.453-4.344,5.531-7.281,10.117-7.281c4.594,0,8.672,2.938,10.117,7.281l28.632,85.905c1.109,3.312,0.516,6.969-1.586,9.765
		l-11.219,14.953l25.242,14.578l7.344-17.203c1.375-3.219,4.242-5.547,7.672-6.25l88.686-18.156c4.5-0.922,9.094,1.141,11.391,5.125
		c2.281,3.969,1.781,8.968-1.266,12.406l-60.062,67.733c-2.328,2.625-5.781,3.938-9.258,3.516l-18.219-2.188v29.046l18.219-2.188
		c3.477-0.422,6.93,0.891,9.258,3.516l59.765,67.404c1.859,1.906,3,4.531,3,7.406c0,5.75-4.547,10.438-10.234,10.656
		c-0.859,0.047-1.719-0.031-2.594-0.203l-88.686-18.156c-3.43-0.703-6.297-3.031-7.672-6.25l-7.344-17.201l-25.242,14.578
		l11.219,14.951c2.102,2.797,2.695,6.453,1.586,9.766l-28.632,85.906C176.372,445.041,172.294,447.994,167.701,447.994z
		 M150.959,353.353l16.742,50.234l16.75-50.234l-10.968-14.609c-1.383-1.859-2.133-4.094-2.133-6.406v-7.873
		c0-3.812,2.031-7.328,5.336-9.234l37.827-21.844c3.305-1.906,7.367-1.906,10.672,0l6.812,3.938c2,1.156,3.57,2.922,4.476,5.047
		l7.18,16.797l51.875,10.625l-35.133-39.625l-18.141,2.188c-2.289,0.281-4.609-0.203-6.609-1.359l-6.468-3.734
		c-3.305-1.906-5.336-5.422-5.336-9.234v-44.078c0-3.812,2.031-7.328,5.336-9.234l6.468-3.734c2-1.156,4.32-1.64,6.609-1.359
		l18.141,2.187l35.133-39.624l-51.875,10.625l-7.18,16.796c-0.906,2.125-2.476,3.891-4.476,5.047l-6.812,3.938
		c-3.297,1.906-7.367,1.906-10.664,0l-37.835-21.843c-3.297-1.906-5.336-5.422-5.336-9.234v-7.875c0-2.312,0.75-4.547,2.133-6.406
		l10.968-14.609l-16.75-50.233l-16.742,50.233l10.96,14.609c1.383,1.859,2.133,4.094,2.133,6.406v8.656
		c0,3.812-2.031,7.344-5.336,9.25l-37.147,21.437c-3.297,1.906-7.359,1.906-10.664,0l-7.5-4.328c-2-1.156-3.57-2.922-4.477-5.047
		l-7.171-16.796l-51.882-10.625l35.132,39.624l18.141-2.187c2.289-0.281,4.609,0.203,6.609,1.359l7.844,4.516
		c3.297,1.906,5.336,5.438,5.336,9.25v42.484c0,3.812-2.039,7.344-5.336,9.25l-7.845,4.511c-2,1.156-4.32,1.641-6.609,1.359
		l-18.141-2.188l-35.132,39.625l51.882-10.625l7.171-16.797c0.906-2.125,2.477-3.891,4.477-5.047l7.5-4.328
		c3.305-1.906,7.367-1.906,10.672,0l37.14,21.438c3.305,1.906,5.336,5.438,5.336,9.25v8.654c0,2.312-0.75,4.547-2.133,6.406
		L150.959,353.353z"/>
	<path style="fill:#FFCE54;" d="M168.466,287.996c-17.64,0-32-14.359-32-32c0-17.656,14.359-32,32-32c17.648,0,32,14.344,32,32
		C200.466,273.637,186.114,287.996,168.466,287.996z M168.466,245.325c-5.883,0-10.664,4.781-10.664,10.672
		c0,5.875,4.781,10.656,10.664,10.656s10.672-4.781,10.672-10.656C179.138,250.106,174.349,245.325,168.466,245.325z"/>
</g>
<path style="fill:#E6E9ED;" d="M447.993,0c-29.405,0-53.343,23.922-53.343,53.328s23.938,53.327,53.343,53.327
	s53.327-23.921,53.327-53.327S477.398,0,447.993,0z"/>
<path style="fill:#CCD1D9;" d="M458.648,53.328c0,5.89-4.765,10.671-10.655,10.671s-10.672-4.781-10.672-10.671
	c0-5.891,4.781-10.672,10.672-10.672S458.648,47.437,458.648,53.328z"/>
</svg>