<?xml version="1.0" encoding="iso-8859-1"?>
<!-- Uploaded to: SVG Repo, www.svgrepo.com, Generator: SVG Repo Mixer Tools -->
<svg height="800px" width="800px" version="1.1" id="Layer_1" xmlns="http://www.w3.org/2000/svg" xmlns:xlink="http://www.w3.org/1999/xlink" 
	 viewBox="0 0 511.674 511.674" xml:space="preserve">
<path style="fill:#ED5564;" d="M168.385,382.567l-11.04,1.187c-1.085,0.125-27.014,2.967-58.689,13.366
	c-43.269,14.179-75.038,34.774-94.432,61.227c-3.755,5.106-4.192,11.727-1.171,17.677c4.302,8.494,14.865,14.662,25.117,14.662l0,0
	c5.941,0,11.282-2.046,15.443-5.902c28.403-26.296,75.639-45.253,117.534-47.173l10.868-0.5L168.385,382.567z"/>
<path style="fill:#CCD1D9;" d="M510.111,128.496c-2.671-51.342-14.882-88.209-15.396-89.74L481.691,0l-7.558,40.161
	c-7.245,38.444-24.968,68.8-52.653,90.208c-20.862,16.13-39.943,20.94-40.1,20.971l-7.995,1.92l-0.172,8.229
	c-0.702,31.948-12.258,63.381-34.368,93.424c-18.098,24.578-43.223,48.282-74.664,70.47
	c-54.183,38.226-108.867,58.775-109.405,58.963l6.371,53.263c146.781-6.73,249.168-50.937,304.273-131.4
	c18.332-26.765,31.277-57.557,38.461-91.504C509.58,187.723,511.672,158.726,510.111,128.496z"/>
<path style="opacity:0.3;fill:#FFFFFF;enable-background:new    ;" d="M510.111,128.496c-2.671-51.342-14.882-88.209-15.396-89.74
	L481.691,0l-7.558,40.161c-0.031,0.188-0.078,0.375-0.125,0.562c2.624,8.401,12.43,42.441,14.772,87.772
	c1.576,30.23-0.531,59.228-6.215,86.21c-7.184,33.947-20.129,64.739-38.477,91.504c-52.401,76.546-147.59,120.268-283.097,130.137
	l0.156,1.265c146.781-6.73,249.168-50.937,304.273-131.4c18.332-26.765,31.277-57.557,38.461-91.504
	C509.58,187.723,511.672,158.726,510.111,128.496z"/>
<g>
	<path style="fill:#DA4453;" d="M67.122,467.185c5.941-3.653,12.227-7.058,18.769-10.134l-22.743-45.596
		c-6.605,3.248-12.82,6.714-18.637,10.399L67.122,467.185z"/>
	<path style="fill:#DA4453;" d="M94.963,398.338l9.533,50.999c6.73-2.436,13.601-4.528,20.518-6.262l-9.525-50.982
		c-5.34,1.437-10.985,3.092-16.833,5.027C97.415,397.526,96.189,397.933,94.963,398.338z"/>
</g>
<path style="fill:#FFCE54;" d="M159.711,357.974l-0.047,0.016c-1.483-4.06-5.379-6.979-9.97-6.979
	c-5.855,0-10.61,4.762-10.61,10.603c0,1.28,0.234,2.498,0.648,3.638l-0.047,0.016c12.875,35.353,16.021,64.084,9.337,85.383
	c-5.2,16.614-16.364,28.232-33.189,34.572c-16.778,6.308-38.913,6.776-59.205,1.249c-3.802-1.031-7.44-2.265-10.836-3.654
	c-0.734,0.656-1.468,1.312-2.178,1.968c-4.162,3.856-9.502,5.902-15.443,5.902l0,0c-6.988,0-14.116-2.873-19.316-7.386
	c8.893,10.228,23.743,18.722,42.161,23.75c11.344,3.092,23.001,4.622,34.337,4.622c13.483,0,26.514-2.186,37.991-6.496
	c22.946-8.65,38.866-25.296,46.025-48.156C177.481,431.146,174.233,397.823,159.711,357.974z"/>
</svg>