<svg xmlns="http://www.w3.org/2000/svg" width="800" height="800" viewBox="0 0 512 512" xmlns:v="https://vecta.io/nano"><linearGradient gradientUnits="userSpaceOnUse" id="A" x1="256" x2="256" y1="94.186" y2="719.806"><stop offset=".01" stop-color="#b7858f"/><stop offset="1" stop-color="#8e545c"/></linearGradient><path d="M140.682 238.054s1.906-95.292 4.765-124.832S171.176 9.355 270.279 11.26c0 0 96.03 2.771 102.667 121.019.212 3.77.21 7.537.142 11.312-.337 18.585-1.305 78.797-.29 108.824.155 4.615.983 9.178 2.645 13.487 1.47 3.815 3.169 9.509 3.452 15.96.415 9.47 2.31 18.796 6.422 27.336 6.047 12.559 15.538 29.74 27.402 42.877 7.521 8.326 11.207 19.658 8.915 30.641-1.308 6.268-4.275 12.631-10.323 17.334 0 0 31.446 37.164-7.623 74.328 0 0-15.246 15.245-36.866 23.559-5.873 2.258-12.173 3.155-18.453 2.743-36.916-2.422-182.918-20.288-253.227-151.872-4.962-9.287-7.369-19.866-6.063-30.314 1.574-12.596 8.247-26.871 29.688-29.934 0 0-5.993-20.257 9.921-29.484 7.417-4.305 11.775-12.448 11.994-21.022h0z" fill="url(#A)"/><path d="M403.687 474.377c39.069-37.164 7.623-74.328 7.623-74.328 6.05-4.705 9.017-11.069 10.324-17.338 2.288-10.969-1.37-22.291-8.885-30.604-11.988-13.26-21.556-30.657-27.6-43.254-4.036-8.414-5.856-17.619-6.254-26.941-.274-6.422-1.954-12.098-3.42-15.922-1.692-4.416-2.53-9.096-2.688-13.822-1.001-30.107-.037-90.043.299-108.578.068-3.775.07-7.542-.142-11.312C366.309 14.03 270.278 11.26 270.278 11.26c-4.109-.079-8.041.019-11.892.193 9.824 5.32 22.23 14.754 27.866 30.157 2.907 7.943-.884 16.93-8.601 20.392-20.749 9.307-61.363 40.356-54.3 139.831 0 0-11.532 84.332 64.87 139.71 8.239 5.972 13.885 14.955 15.813 24.946 1.562 8.094 2.425 18.178.634 28.623-1.771 10.322-12.778 16.402-22.378 12.213-4.459-1.947-9.302-4.439-13.809-7.543-2.165-1.49-5.057-1.816-7.252-.371-3.317 2.182-3.799 6.651-1.256 9.439 5.041 5.527 14.41 15.099 25.378 22.932 0 0-23.136 35.329-86.833 23.457 62.536 36.506 127.028 43.941 149.847 45.438 6.28.412 12.58-.485 18.453-2.743 21.622-8.312 36.869-23.557 36.869-23.557z" fill="#8e545c"/><path d="M306.662 82.986c15.482 7.376 29.516 21.443 33.566 47.798.445 2.895.64 5.823.788 8.749l5.891 116.339c.786 15.532 3.756 30.824 7.976 45.793 3.354 11.897 4.043 26.934-11.16 32.049-1.426.48-2.932.686-4.435.731-13.874.425-83.462-2.767-131.959-104.181-3.713-7.764-6.297-16.021-7.771-24.5-3.625-20.871-7.173-60.763 10.25-92.058 18.976-34.083 61.639-47.499 96.854-30.72z" fill="#602e3a"/><linearGradient gradientUnits="userSpaceOnUse" id="B" x1="260.768" x2="260.768" y1="213.218" y2="-35.539"><stop offset=".005" stop-color="#ffe1ff"/><stop offset="1" stop-color="#e5b4f7"/></linearGradient><path d="M293.045 78.065c-31.983-8.14-66.654 5.856-83.236 35.64-16.132 28.975-14.283 65.291-11.043 87.085 9.336 8.037 20.426 9.407 27.803 9.192 4.758-.138 8.85 3.307 9.597 8.007l1.984 12.474a7.03 7.03 0 0 0 6.941 5.924h8.128a7.03 7.03 0 0 0 6.999-6.377l1.345-14.459c.313-3.354 3.126-5.918 6.494-5.918a6.52 6.52 0 0 1 6.486 5.847l1.521 14.607a7.03 7.03 0 0 0 6.991 6.301h6.872a7.03 7.03 0 0 0 7.029-7.029v-12.244c0-3.489 2.745-6.36 6.23-6.516l.897-.04c3.713-.166 6.813 2.799 6.813 6.516v9.795a7.03 7.03 0 0 0 7.028 7.029 7.03 7.03 0 0 0 7.028-7.029v-90.655c.002-29.962-17.912-48.347-31.907-58.15z" fill="url(#B)"/><path d="M263.313 131.162c-8.324-.061-24.607 1.906-31.325 17.268-2.392 5.467-2.954 11.668-1.221 17.378l.123.396c3.774 11.81 18.328 16.115 28.172 8.576l1.206-.938c10.226-8.086 15.297-21.49 11.974-34.097a27.85 27.85 0 0 0-1.041-3.184c-1.285-3.231-4.413-5.374-7.888-5.399zm36.33 4.553c5.952 1.202 16.58 5.126 17.249 17.848.133 2.528-.563 5.036-1.74 7.276l-.122.232c-3.698 6.912-13.241 7.924-18.5 2.109l-.412-.46c-5.59-6.304-7.354-15.46-3.676-23.04a17.45 17.45 0 0 1 .468-.9c1.328-2.389 4.053-3.606 6.733-3.065zm-9.851 37.794c1.421 2.217 2.922 4.826 4.123 7.543 1.187 2.685-.855 5.7-3.791 5.7h-5.948a4.1 4.1 0 0 1-3.949-5.227l2.178-7.092c1.091-3.313 5.504-3.86 7.387-.924z" fill="#602e3a"/><path d="M168.611 316.805c12.878 11.869 32.53 28.943 48.895 38.721 4.314 2.578 5.058 8.502 1.414 11.964h0c-2.843 2.7-7.269 2.782-10.188.165-9.426-8.451-29.651-27.514-43.893-47.533-1.749-2.46 1.553-5.362 3.772-3.317z" fill="#8e545c"/><path d="M322.023 116.188c-5.646-18.444-18.422-30.73-28.979-38.124-27.79-7.072-57.594 2.583-75.813 24.771 21.325-9.109 67.146-21.973 104.792 13.353z" fill="#e5b4f7"/></svg>