<svg xmlns="http://www.w3.org/2000/svg" width="800" height="800" viewBox="0 0 512 512" xmlns:v="https://vecta.io/nano"><linearGradient gradientUnits="userSpaceOnUse" id="A" x1="245.801" x2="317.744" y1="344.314" y2="714.456"><stop offset="0" stop-color="#f9c8b2"/><stop offset="1" stop-color="#dda288"/></linearGradient><path d="M247.91 280.203h-33.708s-33.052 37.774-78.653 62.305c-7.531 4.051-10.64 13.206-7.074 20.979 6.578 14.339 12.987 34.326 19.289 62.811 0 0 16.432 87.021 133.855 77.492 0 0 91.366-2.988 89.304-139.417-.115-7.674-4.882-14.499-11.984-17.405-22.429-9.178-71.031-32.457-85.586-66.764H247.91z" fill="url(#A)"/><path d="M358.938 346.967c-22.429-9.178-71.031-32.457-85.586-66.764h-17.016l15.445 55.043c66.106 63.365 59.195 121.89 44.214 157.426 25.668-14.711 56.128-48.869 54.927-128.3-.115-7.674-4.882-14.499-11.984-17.405z" fill="#dda288"/><path d="M286.79 427.904l-8.645-7.959 7.96-8.646c2.257-2.452 2.1-6.269-.353-8.526h0c-2.452-2.258-6.27-2.1-8.526.352l-7.96 8.645-8.645-7.959c-2.452-2.257-6.269-2.1-8.526.353h0c-2.257 2.452-2.1 6.269.352 8.526l8.646 7.959-7.96 8.645c-2.257 2.452-2.1 6.27.353 8.527h0c2.452 2.257 6.269 2.1 8.526-.352l7.96-8.646 8.645 7.96c2.451 2.257 6.269 2.1 8.526-.353h0c2.256-2.451 2.099-6.268-.353-8.526z" fill="#d38d78"/><linearGradient gradientUnits="userSpaceOnUse" id="B" x1="247.911" x2="247.911" y1="346.576" y2="115.81"><stop offset=".005" stop-color="#ffc3b0"/><stop offset="1" stop-color="#e8897b"/></linearGradient><path d="M214.202 221.132v75.587s0 26.084 27.894 37.12c6.032 2.387 10.699 7.312 12.29 13.602l7.744 30.627c.645 2.548 4.363 2.22 4.552-.401l2.415-33.657c.286-3.987 1.667-7.859 4.183-10.966 3.798-4.688 9.078-14.061 8.253-29.338v-45.098l-67.331-37.476z" fill="url(#B)"/><path d="M276.094 328.936l.539-.98.876-1.704.541-1.2.777-1.932.491-1.381.663-2.244.394-1.499.529-2.767.245-1.42.421-4.648h0l-.038-5.455v-45.098l-67.33-37.476v6.689l14.417 16.739a186.2 186.2 0 0 1 32.932 54.187c5.934 15.075-8.973 25.538-24.684 21.583-12.4-3.121-17.154-14.256-22.6-22.356.412 5.305 3.569 26.274 27.843 35.871 6.027 2.383 10.687 7.312 12.274 13.596l7.745 30.627c.645 2.548 4.363 2.22 4.551-.401l2.416-33.657c.223-3.095 1.124-6.11 2.685-8.763h0c.449-.764.936-1.508 1.498-2.203a32.97 32.97 0 0 0 1.383-1.852c.148-.213.295-.459.444-.684a32.42 32.42 0 0 0 .988-1.572z" fill="#e8897b"/><path d="M336.342 85.304v56.925s15.029-8.116 19.996-26.52c3.748-13.886-5.288-28.39-19.537-30.346l-.459-.059z" fill="#353547"/><path d="M336.342 170.496v43.859h0c9.276 0 16.797-8.517 16.797-19.022v-5.813c0-10.506-7.521-19.024-16.797-19.024h0z" fill="#e8897b"/><linearGradient gradientUnits="userSpaceOnUse" id="C" x1="273.352" x2="273.352" y1="249.602" y2="-6.479"><stop offset=".005" stop-color="#ffc3b0"/><stop offset="1" stop-color="#e8897b"/></linearGradient><path d="M339.141 77.646l-2.799 166.105s-.393 32.933-30.287 33.391c-5.02.077-9.963-1.05-14.649-2.85-14.308-5.496-52.141-21.366-76.426-43.922-4.689-4.355-7.416-10.418-7.416-16.818V77.646h131.577z" fill="url(#C)"/><path d="M269.619 125.704s14.289 5.358 26.613-5.18c4.83-4.13 11.502-5.681 17.277-3.028 4.849 2.226 9.301 6.411 9.301 14.273v104.572c0 5.604-.758 11.214-2.601 16.507-3.732 10.718-12.686 24.125-33.889 19.432l5.084 2.012c4.687 1.8 9.63 2.927 14.649 2.85 29.895-.458 30.287-33.391 30.287-33.391l2.799-166.105h-67.477l-2.043 48.058z" fill="#e8897b"/><path d="M181.508 64.581s-23.967 7.308-31.746 34.535c-2.517 8.811-2.533 18.091-.738 27.067 3.285 16.423 15.287 52.286 35.851 73.241l22.688-28.929s8.073-12.295 16.331-21.575c2.754-3.096 5.15-6.463 6.649-10.284 2.441-6.221 4.677-15.657 1.944-25.997 0 0 16.829 15.972 45.382 16.649 9.272.221 15.337-9.912 10.101-17.339l-.174-.244s-4.8-5.752-8.126-13.897c-1.286-3.15 1.784-6.333 5.077-5.203 18.853 6.465 67.944 19.366 87.356-13.316 2.428-4.088-.336-9.312-5.146-9.999-3.448-.492-7.272-1.243-10.387-2.376 0 0 25.77-7.197 28.408-41.387.398-5.16-5.124-8.782-9.934-6.546-9.247 4.301-24.194 8.803-41.491 4.706-3.516-.833-6.865-2.158-10.139-3.655-11.574-5.292-51.75-20.92-96.7-6.776.002 0-39.435 12.131-45.206 51.325z" fill="#353547"/><path d="M200.859 214.355h6.704v-43.859h-6.704c-11.244 0-20.358 9.115-20.358 20.358v3.143a20.36 20.36 0 0 0 20.358 20.358zm105.188 0h0c-4.217 0-7.635-3.418-7.635-7.635v-10.782c0-4.217 3.418-7.635 7.635-7.635h0c4.216 0 7.634 3.418 7.634 7.635v10.782c0 4.218-3.418 7.635-7.634 7.635z" fill="#e8897b"/><g fill="#333345"><circle cx="276.939" cy="167.944" r="7.32"/><circle cx="321.001" cy="167.944" r="7.32"/></g></svg>