<svg xmlns="http://www.w3.org/2000/svg" height="800" width="800" viewBox="0 0 511.992 511.992" xmlns:v="https://vecta.io/nano"><path d="M490.617 201.701l-5.312-136.795c-.219-5.719-4.922-10.25-10.656-10.25h-53.326c-5.734 0-10.438 4.531-10.656 10.25l-5.328 137.342a10.56 10.56 0 0 0 2.969 7.796c2 2.094 4.781 3.281 7.688 3.281h63.998c5.907 0 10.672-4.781 10.672-10.671-.002-.328-.018-.641-.049-.953z" fill="#ed5564"/><path d="M407.807 138.655h80.373l-.829-21.328h-78.716zm-1.657 42.671h83.686l-.828-21.328h-82.03z" fill="#da4453"/><path d="M240.98 281.762l-6.468-3.734V233.95l6.468-3.734 23.688 2.844 60.062-67.733-88.694 18.156-9.367 21.938-6.82 3.937-37.828-21.843v-7.875l14.312-19.093-28.632-85.891-28.632 85.889 14.32 19.093v8.656l-37.147 21.453-7.5-4.328-9.375-21.938-88.703-18.155 60.069 67.733 23.688-2.844 7.843 4.531v42.484l-7.843 4.531-23.688-2.844-60.069 67.732 88.701-18.139 9.375-21.953 7.5-4.328 37.147 21.453v8.654l-14.32 19.094 28.632 85.891 28.632-85.891-14.312-19.094v-7.873l37.828-21.844 6.82 3.938 9.367 21.938 88.694 18.154-60.062-67.732-23.686 2.845zm-72.514-4.438a21.33 21.33 0 0 1-21.328-21.328c0-11.797 9.546-21.344 21.328-21.344s21.335 9.547 21.335 21.344c.001 11.781-9.554 21.328-21.335 21.328z" fill="#f6bb42"/><path d="M508.867 216.45l-21.344-21.343c-2-2-4.703-3.109-7.531-3.109h-63.998c-2.828 0-5.547 1.109-7.547 3.109l-21.328 21.343a10.65 10.65 0 0 0-3.125 7.546c0 100.437 127.998 214.716 127.998 0a10.65 10.65 0 0 0-3.125-7.546z" fill="#aab2bc"/><path d="M383.994 223.996c0 100.437 14.734 171.638 27.094 213.669 13.594 46.201 27.28 68.389 27.858 69.311 1.812 2.891 4.906 4.75 8.312 4.984.25.016.484.031.734.031V245.325l-63.233-25.296c-.499 1.249-.765 2.592-.765 3.967z" fill="#e6e9ed"/><path d="M511.992 223.996c0 100.437-14.734 171.638-27.109 213.669-13.578 46.201-27.281 68.389-27.844 69.311-1.812 2.891-4.905 4.75-8.327 4.984-.234.016-.484.031-.719.031V245.325l63.233-25.296c.485 1.249.766 2.592.766 3.967z" fill="#ccd1d9"/><path d="M167.701 447.994a10.69 10.69 0 0 1-10.117-7.297l-28.632-85.906c-1.109-3.312-.516-6.969 1.586-9.766l11.633-15.514-25.382-14.641-7.609 17.826c-1.375 3.219-4.242 5.547-7.672 6.25l-88.701 18.156a10.67 10.67 0 0 1-11.375-5.109 10.68 10.68 0 0 1 1.258-12.422l60.069-67.732a10.64 10.64 0 0 1 9.257-3.516l19.586 2.359v-29.39l-19.586 2.359a10.64 10.64 0 0 1-9.257-3.516L2.688 172.404a10.66 10.66 0 0 1-1.258-12.406c2.297-3.984 6.875-6.047 11.375-5.125l88.701 18.156c3.43.703 6.297 3.031 7.672 6.25l7.609 17.828 25.382-14.641-11.633-15.516a10.64 10.64 0 0 1-1.586-9.765l28.632-85.905c1.453-4.344 5.531-7.281 10.117-7.281a10.66 10.66 0 0 1 10.117 7.281l28.632 85.905a10.64 10.64 0 0 1-1.586 9.765l-11.219 14.953 25.242 14.578 7.344-17.203c1.375-3.219 4.242-5.547 7.672-6.25l88.686-18.156a10.68 10.68 0 0 1 11.391 5.125c2.281 3.969 1.781 8.968-1.266 12.406l-60.062 67.733a10.65 10.65 0 0 1-9.258 3.516l-18.219-2.188v29.046l18.219-2.188a10.65 10.65 0 0 1 9.258 3.516l59.765 67.404c1.859 1.906 3 4.531 3 7.406 0 5.75-4.547 10.438-10.234 10.656-.859.047-1.719-.031-2.594-.203l-88.686-18.156c-3.43-.703-6.297-3.031-7.672-6.25l-7.344-17.201-25.242 14.578 11.219 14.951c2.102 2.797 2.695 6.453 1.586 9.766l-28.632 85.906a10.67 10.67 0 0 1-10.115 7.299zm-16.742-94.641l16.742 50.234 16.75-50.234-10.968-14.609c-1.383-1.859-2.133-4.094-2.133-6.406v-7.873c0-3.812 2.031-7.328 5.336-9.234l37.827-21.844c3.305-1.906 7.367-1.906 10.672 0l6.812 3.938c2 1.156 3.57 2.922 4.476 5.047l7.18 16.797 51.875 10.625-35.133-39.625-18.141 2.188c-2.289.281-4.609-.203-6.609-1.359l-6.468-3.734c-3.305-1.906-5.336-5.422-5.336-9.234v-44.078c0-3.812 2.031-7.328 5.336-9.234l6.468-3.734c2-1.156 4.32-1.64 6.609-1.359l18.141 2.187 35.133-39.624-51.875 10.625-7.18 16.796c-.906 2.125-2.476 3.891-4.476 5.047l-6.812 3.938a10.66 10.66 0 0 1-10.664 0l-37.835-21.843a10.67 10.67 0 0 1-5.336-9.234v-7.875c0-2.312.75-4.547 2.133-6.406l10.968-14.609-16.75-50.233-16.742 50.233 10.96 14.609c1.383 1.859 2.133 4.094 2.133 6.406v8.656a10.68 10.68 0 0 1-5.336 9.25l-37.147 21.437a10.66 10.66 0 0 1-10.664 0l-7.5-4.328a10.66 10.66 0 0 1-4.477-5.047l-7.171-16.796-51.882-10.625 35.132 39.624 18.141-2.187c2.289-.281 4.609.203 6.609 1.359l7.844 4.516c3.297 1.906 5.336 5.438 5.336 9.25v42.484c0 3.812-2.039 7.344-5.336 9.25l-7.845 4.511c-2 1.156-4.32 1.641-6.609 1.359l-18.141-2.188-35.132 39.625 51.882-10.625 7.171-16.797c.906-2.125 2.477-3.891 4.477-5.047l7.5-4.328c3.305-1.906 7.367-1.906 10.672 0l37.14 21.438a10.68 10.68 0 0 1 5.336 9.25v8.654c0 2.312-.75 4.547-2.133 6.406l-10.96 14.61zm17.507-65.357c-17.64 0-32-14.359-32-32 0-17.656 14.359-32 32-32 17.648 0 32 14.344 32 32 0 17.641-14.352 32-32 32zm0-42.671c-5.883 0-10.664 4.781-10.664 10.672 0 5.875 4.781 10.656 10.664 10.656s10.672-4.781 10.672-10.656c0-5.891-4.789-10.672-10.672-10.672z" fill="#ffce54"/><path d="M447.993 0c-29.405 0-53.343 23.922-53.343 53.328s23.938 53.327 53.343 53.327 53.327-23.921 53.327-53.327S477.398 0 447.993 0z" fill="#e6e9ed"/><path d="M458.648,53.328c0,5.89-4.765,10.671-10.655,10.671s-10.672-4.781-10.672-10.671   c0-5.891,4.781-10.672,10.672-10.672S458.648,47.437,458.648,53.328z" fill="#ccd1d9"/></svg>