<svg xmlns="http://www.w3.org/2000/svg" width="800" height="800" viewBox="0 0 512 512" xmlns:v="https://vecta.io/nano"><path d="M332.035 185.986l-1.857 83.622s-3.209 69.505-67.393 55.611c0 0-18.094-50.678 3.561-149.647l65.689 10.414z" fill="#ad3a4c"/><linearGradient gradientUnits="userSpaceOnUse" id="A" x1="235.833" x2="235.833" y1="403.425" y2="217.338"><stop offset=".005" stop-color="#ffc3b0"/><stop offset="1" stop-color="#e8897b"/></linearGradient><path d="M264.312 275.599s-10.159 44.874 16.511 57.087c3.291 1.508 6.893 2.15 10.508 2.324 11.192.541 46.888 5.813 39.775 51.416 0 0-16.579 30.182-93.637 37.604 0 0-67.163.494-97.838-46.509 0 0 9.896-44.528 39.086-46.509 0 0 15.747-.254 27.496-5.312 6.463-2.782 10.889-8.88 11.784-15.858l7.229-56.393 39.086 22.15z" fill="url(#A)"/><path d="M225.225 253.449l-4.156 32.42 50.077 39.35h0c-14.157-17.23-6.834-49.62-6.834-49.62l-39.087-22.15zm105.88 132.977c6.946-44.54-26.93-50.604-38.94-51.367 9.979 6.878 28.206 24.971 25.696 64.297 10.059-7.135 13.244-12.93 13.244-12.93zm-93.597 14.077c3.454 2.633 11.106 9.95 11.834 23.526h12.727s-3.779-17.502 5.308-27.395c.37-.402-.052-1.019-.555-.806-3.38 1.428-9.567 6.645-12.796 12.179 0 0-5.037-6.886-16.118-8.414-.516-.07-.814.595-.4.91z" fill="#e8897b"/><path d="M244.032 348.23c-3.263 0-30.328-2.457-39.429-24.162-.755-1.801.2-3.878 2.068-4.444h0c1.582-.479 3.293.296 3.926 1.821 7.892 19.029 32.661 20.233 33.676 20.242 16.426-.002 24.839-11.595 27.738-16.691.769-1.352 2.398-1.938 3.865-1.428h0c1.92.667 2.779 2.906 1.765 4.668-3.755 6.518-13.874 19.991-33.255 19.991a12.12 12.12 0 0 1-.354.003z" fill="#333345"/><path d="M186.552 157.085l-5.729 32.789s-40.838-1.018-87.406 12.746c0 0-86.976 27.643-81.134-62.913l174.269 17.378z" fill="#6d4d7a"/><linearGradient gradientUnits="userSpaceOnUse" id="B" x1="272.701" x2="272.701" y1="277.025" y2="145.34"><stop offset=".005" stop-color="#ffc3b0"/><stop offset="1" stop-color="#e8897b"/></linearGradient><path d="M317.518 184.886l-2.287 77.795c-.023.753-.082 1.482-.188 2.228-.465 3.247-2.137 11.562-7.544 17.551-4.511 4.995-11.561 6.832-18.16 5.511-13.328-2.67-46.808-11.121-61.453-30.8v-88.477l89.632 16.192z" fill="url(#B)"/><path d="M307.498 282.46c5.407-5.989 7.079-14.304 7.544-17.552.106-.744.165-1.474.188-2.227l2.287-77.795-89.632-16.192v24.666c14.144 3.983 53.734 16.077 72.623 31.486 2.625 2.142 4.049 5.42 4.049 8.807v33.835s.239 10.556-4.74 19.873c2.907-.956 5.576-2.57 7.681-4.901zm-28.019-53.92h12.941c2.038 0 3.397 2.167 2.439 3.967-1.506 2.832-4.225 6.142-8.708 6.142 0 0-6.386-.102-9.192-6.28-.813-1.788.557-3.829 2.52-3.829z" fill="#e8897b"/><path d="M300.855 201.438h0c-2.045 0-3.703-1.658-3.703-3.702v-8.048c0-2.045 1.658-3.702 3.703-3.702h0a3.7 3.7 0 0 1 3.701 3.702v8.048a3.7 3.7 0 0 1-3.701 3.702z" fill="#333345"/><path d="M281.569 178.325s-4.685 35.486-44.101 52.333l-4.662 67.153c-1.855 26.728-23.141 48.64-49.911 49.73a65.26 65.26 0 0 1-3.241.051c-8.489-.076-16.384-4.398-21.478-11.189l-.025-.033c-4.5-6.002-6.404-13.531-5.298-20.951 1.937-12.983 6.377-34.913 16.196-57.871 3.045-7.12 4.327-14.844 4.008-22.582-.86-20.913-1.772-61.966 3.486-75.638l105.026 18.997z" fill="#e25a6c"/><path d="M172.898 183.915c12.532 2.385 41.049 8.27 59.867 15.692 3.897 1.537 5.38 6.221 3.131 9.754-2.011 3.159-4.82 7.02-8.407 10.655-3.488 3.534-5.361 8.347-5.12 13.307 1.224 25.126 1.184 99.261-40.439 114.233.005.025-.001-.011.003.015 27.221-.597 48.996-22.713 50.874-49.76l4.662-67.153c39.416-16.847 44.101-52.333 44.101-52.333l-105.023-18.998c-1.983 5.153-3.087 14.199-3.649 24.588z" fill="#ad3a4c"/><path d="M12.282 139.707l332.856 55.875s57.38 8.942 92.937 6.667c2.728-.174 5.387-.785 7.947-1.739 13.582-5.06 54.637-24.006 53.971-67.986 0 0-67.086-16.054-174.863-6.753 0 0 9.47-60.498-87.66-117.526-4.065-2.387-8.854-3.279-13.466-2.307-13.272 2.797-44.274 12.884-95.277 49.258 0 0-6.133-5.111-14.097-9.686-4.181-2.402-9.348-2.186-13.413.409-7.478 4.772-19.974 14.18-31.09 29.336-2.784 3.796 1.052 8.924 5.458 7.267 6.013-2.261 13.036-4.662 18.909-6.013 4.221-.971 8.629-.071 12.233 2.332 5.62 3.749 14.659 10.282 22.126 18.022 3.711 3.846 9.46 4.84 14.185 2.342 10.258-5.423 27.532-13.908 37.113-15.014l14.771 19.55s-11.489 15.463-19.148 31.329c.001 0-71.496 8.727-163.492 4.637z" fill="#936fa0"/><path d="M153.073 94.126c9.37-4.539 20.197-9.142 27.079-9.936l-8.426-13.643c-1.262-2.043-4.29-1.861-5.27.332-2.493 5.573-7.042 14.708-13.383 23.247zm129.984 23.228c.392 4.614-1.318 9.158-4.717 12.304-2.109 1.953-4.664 4.243-7.283 6.418-2.529 2.1-1.135 6.201 2.152 6.266 20.108.397 64.033 1.716 84.746 5.859 0 0 24.668 5.432 32.748 22.515 2.109 4.457 1.796 9.663-.937 13.768-2.988 4.49-8.44 10.469-17.772 14.606 19.664 2.211 46.259 4.429 66.081 3.16 2.727-.174 5.386-.785 7.946-1.739 13.582-5.06 54.637-24.006 53.971-67.986 0 0-67.086-16.054-174.863-6.753 0 0 9.47-60.498-87.66-117.526 0-.002 39.543 37.795 45.588 109.108z" fill="#6d4d7a"/><path d="M266.346 352.891c0-10.183-8.255-18.438-18.438-18.438s-18.439 8.255-18.439 18.438c0 8.19 5.345 15.125 12.732 17.528l.755 7.493c.218 2.163 2.148 3.74 4.312 3.521l7.535-.758a3.94 3.94 0 0 0 3.522-4.313l-.783-7.773c5.275-3.243 8.804-9.052 8.804-15.698z" fill="#fff"/><g fill="#333345"><circle cx="242.16" cy="354.202" r="4.847"/><circle cx="256.217" cy="352.418" r="4.848"/></g><path d="M131.625 374.967c1.907-3.83 6.914-4.783 10.069-1.895 15.827 14.494 61.072 50.188 114.446 41.061 0 0 47.018-7.504 75.164-34.186 2.434-2.308 6.328-1.795 8.088 1.059 2.707 4.387 6.959 10.426 12.391 15.395 2.32 2.121 3.355 5.303 2.572 8.346-.734 2.858-1.988 6.484-4.094 9.932-2.146 3.514-3.244 7.547-2.766 11.636 1.795 15.358 2.531 52.411-29.979 62.53 0 0-23.425 4.805-41.422-5.698-2.433-1.419-5.239-2.064-8.045-1.831h0c-4.133.346-7.854 2.538-10.215 5.947-5.715 8.251-20.572 22.713-52.896 18.403 0 0-39.157-3.601-41.918-44.284-.371-5.463-1.828-10.783-4.549-15.533-4.855-8.475-14.186-20.828-30.239-28.846-6.438-3.215-9.316-10.818-6.955-17.617 2.222-6.39 5.543-14.767 10.348-24.419z" fill="#936fa0"/><path d="M244.528 441.429c-1.563-1.614-3.703-2.51-5.949-2.51-3.847 0-7.154 2.667-8.066 6.403-11.14 45.638-39.812 48.133-55.107 45.908 12.4 12.848 29.534 14.435 29.534 14.435 32.325 4.31 47.182-10.152 52.896-18.403 3.263-25.379-7.927-40.278-13.308-45.833zm37.763 44.663c16.745 6.518 35.227 2.752 35.227 2.752 32.51-10.119 31.773-47.172 29.979-62.53-.479-4.089.619-8.122 2.766-11.636 2.105-3.447 3.359-7.073 4.094-9.932.783-3.043-.253-6.225-2.572-8.346-5.432-4.969-9.684-11.008-12.391-15.395-1.76-2.854-5.654-3.366-8.088-1.059-4.241 4.02-8.914 7.597-13.786 10.786l-.001.006c6.181 67.62-22.701 89.227-35.228 95.354z" fill="#6d4d7a"/></svg>