<?xml version="1.0" ?><!-- Uploaded to: SVG Repo, www.svgrepo.com, Generator: SVG Repo Mixer Tools -->
<svg width="800px" height="800px" viewBox="0 0 24 24" data-name="Layer 1" id="Layer_1" xmlns="http://www.w3.org/2000/svg"><title/><rect height="3.5" style="fill:#b3c1c9" width="1" x="6.5" y="9.5"/><path d="M7.0024,15.4995a1.49936,1.49936,0,1,1,.8589-.2715v.0005A1.49191,1.49191,0,0,1,7.0024,15.4995ZM6.999,13.5a.49354.49354,0,0,0-.2861.0908A.49954.49954,0,1,0,6.999,13.5Z" style="fill:#b3c1c9"/><polygon points="10.458 20 10.656 11.271 11.667 7.458 9.125 5.708 8.876 2.238 9.583 2.167 10.125 4.875 13.375 6.667 12.292 11.458 13.917 19.875 10.458 20" style="fill:#4b5661"/><polygon points="18.458 7.75 17 6.375 12.5 8 12.458 6.333 17.281 5.157 19.04 7.318 18.458 7.75" style="fill:#4b5661"/><polygon points="4.042 11.833 3.631 11.36 7.982 8.074 11.845 10.759 10.988 11.991 8.042 9.625 4.042 11.833" style="fill:#4b5661"/><polygon points="12.667 14.442 11.161 13.055 14.934 9.613 17.167 11.026 19.257 9 19.75 9.609 17.292 12.359 15.125 11.317 12.667 14.442" style="fill:#4b5661"/><polygon points="13.322 16.916 16.083 14.958 15.489 14.376 12.633 15.584 13.322 16.916" style="fill:#4b5661"/><polygon points="15.401 6.668 13.999 6.132 15.299 2.732 15.833 2.958 15.401 6.668" style="fill:#4b5661"/><polygon points="19.557 12.908 17.583 11.442 18.417 10.901 19.958 12.401 19.557 12.908" style="fill:#4b5661"/><polygon points="4.042 6.833 7.292 9.083 6.125 9.833 3.681 7.175 4.042 6.833" style="fill:#4b5661"/><polygon points="6.5 6.125 5.455 8.056 4.672 7.416 6.182 5.952 6.5 6.125" style="fill:#4b5661"/><path d="M19,22H5s1-3,7-3S19,22,19,22Z" style="fill:#67c7a5"/></svg>