<?xml version="1.0" encoding="utf-8"?>
<!-- Uploaded to: SVG Repo, www.svgrepo.com, Generator: SVG Repo Mixer Tools -->
<svg width="800px" height="800px" viewBox="0 0 1024 1024" class="icon"  version="1.1" xmlns="http://www.w3.org/2000/svg"><path d="M75.637204 137.053486l20.249921-5.399978A10.799958 10.799958 0 0 1 108.712074 137.053486L321.336239 988.900138a10.799958 10.799958 0 0 1-7.424971 12.82495l-20.249921 5.399978a10.799958 10.799958 0 0 1-12.824949-7.42497L68.887231 148.528441A10.799958 10.799958 0 0 1 75.637204 137.053486z" fill="#DA4453" /><path d="M290.961358 1024a27.674891 27.674891 0 0 1-26.324897-19.574923L51.3373 152.578425a27.674891 27.674891 0 0 1 20.24992-33.07487l20.249921-5.399979a26.999894 26.999894 0 0 1 20.924917 0 26.999894 26.999894 0 0 1 12.82495 16.199937V137.053486l211.949167 847.796668A27.674891 27.674891 0 0 1 321.336239 1014.550037l-20.249921 5.399979zM86.437162 150.553433l209.249177 838.346705h8.099969L94.53713 148.528441z" fill="#DA4453" /><path d="M91.162143 193.078266L707.434721 19.603948a10.799958 10.799958 0 0 1 13.499947 12.149952 193.049241 193.049241 0 0 0 26.324896 122.849517c20.924918 41.849836 90.449644 97.874615 153.899396 190.349252a550.797835 550.797835 0 0 1 53.32479 120.149528 10.799958 10.799958 0 0 1-6.749974 13.499947l-742.497081 182.249283a10.799958 10.799958 0 0 1-12.82495-7.42497L83.737173 204.553221a10.799958 10.799958 0 0 1 7.42497-11.474955z" fill="#434A54" /><path d="M203.211703 677.051364A27.674891 27.674891 0 0 1 186.336769 677.051364a26.999894 26.999894 0 0 1-12.149952-16.874934L67.537236 209.9532a27.674891 27.674891 0 0 1 18.899926-33.07487L702.70974 2.054017a27.674891 27.674891 0 0 1 20.924917 0 27.674891 27.674891 0 0 1 13.499947 29.699883 178.1993 178.1993 0 0 0 24.974902 112.04956 382.048498 382.048498 0 0 0 54.674785 67.499734 1106.320651 1106.320651 0 0 1 97.874615 120.149528 556.197814 556.197814 0 0 1 55.349783 124.199512 27.674891 27.674891 0 0 1-16.874934 35.099862L209.961676 677.051364zM101.287104 204.553221l106.64958 438.073278L935.583824 463.752202a512.322986 512.322986 0 0 0-48.599809-110.024567A1086.745728 1086.745728 0 0 0 793.834381 236.953094a395.548445 395.548445 0 0 1-59.399766-75.599703A219.374138 219.374138 0 0 1 702.70974 38.503874z" fill="#434A54" /><path d="M432.035803 463.752202A134.999469 134.999469 0 0 1 330.786201 407.052425a123.524514 123.524514 0 0 1 16.874934-134.999469 181.574286 181.574286 0 0 1 91.799639-60.749762 202.499204 202.499204 0 0 1 104.624589 11.474955A120.824525 120.824525 0 0 1 620.360063 339.55269a143.099438 143.099438 0 0 1-59.399766 94.499629l4.724981 21.599915a5.399979 5.399979 0 0 1-4.049984 6.074976L523.835443 457.002229a5.399979 5.399979 0 0 0-5.399979 0 28.349889 28.349889 0 0 1-15.524939 17.549931 35.099862 35.099862 0 0 1-26.999894-6.749974 5.399979 5.399979 0 0 0-6.074976 0l-25.649899 17.549931a5.399979 5.399979 0 0 1-7.424971 0z" fill="#E6E9ED" /><path d="M477.935623 379.377534l20.24992 24.299904a5.399979 5.399979 0 0 1 0 7.424971l-27.674891 6.074976a5.399979 5.399979 0 0 1-6.074976-6.074976l7.424971-31.049878a5.399979 5.399979 0 0 1 6.074976-4.049984z" fill="#434A54" /><path d="M403.130089 325.073702m-65.769721 15.184137a67.499735 67.499735 0 1 0 131.539441-30.368273 67.499735 67.499735 0 1 0-131.539441 30.368273Z" fill="#434A54" /><path d="M522.719172 306.0992m-65.769721 15.184136a67.499735 67.499735 0 1 0 131.539442-30.368273 67.499735 67.499735 0 1 0-131.539442 30.368273Z" fill="#434A54" /></svg>